<svg xmlns="http://www.w3.org/2000/svg" width="760.4" height="115.652" viewBox="197.505 50.719 190.1 28.913"><g data-name="Group 155"><g data-name="Group 3"><g data-name="Group 2"><path d="M218.464 50.719h-3.58c-.397 0-.596.198-.596.596v9.704c0 3.341.12 7.397.358 10.778l-.12.04c-1.113-2.148-2.624-4.812-3.976-7.199l-7.756-13.522a.835.835 0 0 0-.715-.397h-4.017c-.358 0-.557.198-.557.596v27.243c0 .398.199.597.557.597h3.619c.358 0 .557-.2.557-.597v-9.107c0-3.38-.16-7.517-.358-10.937l.12-.04a89.757 89.757 0 0 0 4.255 7.835l7.516 12.448c.16.278.398.398.676.398h4.017c.398 0 .596-.2.596-.597V51.315c0-.398-.198-.596-.596-.596Z" fill="#fff" fill-rule="evenodd" data-name="Path 1"/><path d="M232.94 58.076c-4.374 0-8.75 2.307-8.75 8.153v5.648c0 5.289 4.216 7.755 8.71 7.755 3.381 0 5.966-1.074 8.074-2.744.318-.24.358-.557.12-.835l-1.631-2.188c-.2-.278-.517-.318-.796-.12-1.471.995-3.141 1.83-5.607 1.83-2.546 0-4.216-1.233-4.216-3.658v-1.114h12.09c.398 0 .597-.2.597-.557v-4.017c0-5.846-4.256-8.153-8.59-8.153Zm4.096 9.147h-8.192V66.19c0-2.943 1.75-4.056 4.096-4.056 2.228 0 4.096 1.153 4.096 4.056v1.034Z" fill="#fff" fill-rule="evenodd" data-name="Path 2"/><path d="M254.933 75.337c-.637.04-1.273.08-1.63.08-2.03 0-3.143-1.273-3.143-3.46v-9.108h4.216c.358 0 .596-.2.596-.557v-2.903c0-.358-.238-.557-.596-.557h-4.256l-.357-4.773c-.04-.318-.279-.517-.597-.517h-3.022c-.398 0-.597.2-.597.557v18.175c0 5.25 3.221 7.358 7.357 7.358.597 0 1.432-.04 2.108-.08.398-.04.557-.318.557-.636v-3.022c0-.359-.239-.557-.636-.557Z" fill="#fff" fill-rule="evenodd" data-name="Path 3"/><path d="M267.778 58.076c-1.59 0-3.062.358-4.295.875v-7.636c0-.398-.199-.596-.596-.596h-3.42c-.398 0-.597.198-.597.596v26.209c0 .358.12.557.477.676 2.347.875 5.408 1.432 7.994 1.432 5.25 0 9.147-2.705 9.147-8.75v-4.374c0-5.17-3.699-8.432-8.71-8.432Zm4.017 12.846c0 3.38-1.71 4.574-4.573 4.574-1.353 0-2.784-.16-3.739-.557V63.207c.995-.637 2.307-1.034 3.818-1.034 2.863 0 4.494 1.312 4.494 4.335v4.414Z" fill="#fff" fill-rule="evenodd" data-name="Path 4"/><path d="M292.197 58.395a25.453 25.453 0 0 0-4.057-.319c-2.426 0-4.931.517-6.96 1.511-.318.12-.437.359-.437.676v18.295c0 .398.199.597.597.597h3.42c.398 0 .596-.2.596-.597V62.73c.756-.318 2.068-.556 3.5-.556 1.074 0 2.227 0 3.222.159.397.08.636-.12.636-.478v-2.863c0-.318-.16-.557-.517-.596Z" fill="#fff" fill-rule="evenodd" data-name="Path 5"/><path d="M303.77 58.076c-5.488 0-9.068 3.182-9.068 8.193v5.33c0 4.93 3.58 8.033 9.068 8.033 5.489 0 9.068-3.102 9.068-8.034v-5.33c0-5.01-3.58-8.192-9.068-8.192Zm4.415 13.522c0 2.546-1.591 3.898-4.415 3.898-2.863 0-4.414-1.352-4.414-3.898v-5.33c0-2.624 1.551-4.056 4.414-4.056 2.824 0 4.415 1.432 4.415 4.057v5.33Z" fill="#fff" fill-rule="evenodd" data-name="Path 6"/><path d="m326.28 67.382 7.675-8.153c.319-.357.2-.676-.317-.676h-4.097c-.318 0-.517.04-.716.279l-7 7.596V51.315c0-.398-.198-.596-.596-.596h-3.42c-.398 0-.597.198-.597.596v27.243c0 .398.2.597.597.597h3.42c.398 0 .596-.2.596-.597v-6.522l1.393-1.432 6.243 8.193c.16.278.438.358.756.358h4.216c.517 0 .636-.319.358-.716l-8.511-11.057Z" fill="#fff" fill-rule="evenodd" data-name="Path 7"/><path d="M344.534 58.076c-4.374 0-8.75 2.307-8.75 8.153v5.648c0 5.289 4.216 7.755 8.71 7.755 3.381 0 5.966-1.074 8.074-2.744.318-.24.358-.557.12-.835l-1.631-2.188c-.2-.278-.517-.318-.796-.12-1.471.995-3.141 1.83-5.608 1.83-2.545 0-4.215-1.233-4.215-3.658v-1.114h12.09c.398 0 .597-.2.597-.557v-4.017c0-5.846-4.256-8.153-8.59-8.153Zm4.096 9.147h-8.192V66.19c0-2.943 1.75-4.056 4.096-4.056 2.227 0 4.096 1.153 4.096 4.056v1.034Z" fill="#fff" fill-rule="evenodd" data-name="Path 8"/><path d="M368.674 58.395a25.446 25.446 0 0 0-4.056-.319c-2.426 0-4.932.517-6.96 1.511-.318.12-.438.359-.438.676v18.295c0 .398.2.597.597.597h3.42c.398 0 .597-.2.597-.597V62.73c.756-.318 2.068-.556 3.5-.556 1.074 0 2.227 0 3.221.159.398.08.636-.12.636-.478v-2.863c0-.318-.159-.557-.517-.596Z" fill="#fff" fill-rule="evenodd" data-name="Path 9"/><path d="M380.208 66.825c-2.625-.516-4.415-.914-4.415-2.545 0-1.312 1.273-2.187 3.62-2.187 1.79 0 3.579.517 5.05 1.312.318.16.597.08.796-.198l1.511-2.546c.199-.318.12-.636-.199-.795-2.346-1.273-4.653-1.83-6.92-1.83-4.255 0-8.431 1.83-8.431 6.244 0 4.812 5.05 6.046 8.034 6.602 1.79.319 3.698.756 3.698 2.347 0 1.511-1.63 2.306-3.698 2.306-2.069 0-4.216-.715-6.006-2.028-.358-.238-.596-.199-.795.16l-1.512 2.584c-.198.318-.198.597.16.796 2.505 1.829 5.368 2.585 8.073 2.585 4.772 0 8.431-2.148 8.431-6.602 0-4.574-4.136-5.608-7.397-6.205Z" fill="#fff" fill-rule="evenodd" data-name="Path 10"/></g></g></g></svg>