<svg xmlns="http://www.w3.org/2000/svg" width="278.055" height="277.832" viewBox="1300 2689 69.514 69.458"><g data-name="Group 108"><g data-name="Group 107" transform="translate(1300 2689)" clip-path="url(&quot;#a&quot;)"><path d="M1.777 69.458c-.249 0-.509-.064-.774-.19C.569 69.062.274 68.7 0 68.032v-.621c.09-.137.176-.275.264-.412.276-.438.533-.844.833-1.145 4.474-4.476 8.967-8.935 13.459-13.395l4.234-4.204c.12-.119.236-.244.36-.379l.736-.786-1.026-1.356c-3.752-4.826-5.766-10.298-5.991-16.272-.266-7.088 1.847-13.454 6.283-18.919C23.49 5.199 29.118 1.829 35.879.528c.757-.145 1.522-.252 2.287-.36A84.01 84.01 0 0 0 39.337 0l3.755.012c.223.043.602.092.982.14.78.1 1.565.201 2.297.367 11.854 2.67 19.362 9.91 22.316 21.518 1.722 6.767.751 13.549-2.887 20.159-.356.646-.955 1.033-1.604 1.033a1.7 1.7 0 0 1-.3-.028c-.806-.15-1.385-.724-1.44-1.43a2.795 2.795 0 0 1 .316-1.434c2.131-3.974 3.168-8.262 3.082-12.746-.219-11.379-8.818-21.504-20.002-23.55a26.157 26.157 0 0 0-4.677-.427c-10.812 0-20.044 6.668-23.521 16.987-2.258 6.704-1.437 14.11 2.256 20.32 3.697 6.218 9.821 10.484 16.803 11.704a26.19 26.19 0 0 0 4.505.399c4.084 0 8.073-1.027 11.856-3.052.354-.19.719-.286 1.083-.286.504 0 .96.185 1.285.522.318.331.477.775.458 1.284-.026.685-.316 1.162-.913 1.5-3.486 1.968-7.235 3.14-11.144 3.484-.938.082-1.872.124-2.774.124-6.41 0-12.32-2.078-17.566-6.175l-.146-.107a7.53 7.53 0 0 1-.351-.256l-.865-.667-.588.92c-.063.1-.12.201-.177.302a1.86 1.86 0 0 1-.18.286C15.231 56.844 9.258 62.775 3.284 68.707c-.502.498-1.009.751-1.507.751" fill="#00cbfa" fill-rule="evenodd" data-name="Path 30"/><path d="M41.126 41.281c-3.02 0-6.097-.992-9.144-2.949-3.146-2.02-6-4.805-8.722-8.515-.52-.708-.552-1.384-.095-2.01 3.63-4.978 7.313-8.212 11.587-10.179 2.074-.954 4.238-1.424 6.615-1.435 3.56.042 7.023 1.379 10.576 4.089 2.549 1.945 4.837 4.316 6.995 7.249.869 1.181.349 1.894.178 2.128-3.555 4.872-7.122 8.052-11.223 10.005-2.253 1.073-4.529 1.617-6.767 1.617m.023-21.5c-1.677 0-3.368.39-5.026 1.158-3.68 1.703-6.342 4.437-8.671 7.138l-.563.655.565.652c2.503 2.902 5.366 5.81 9.327 7.418 1.448.587 2.91.885 4.345.885.599 0 1.204-.052 1.799-.154 1.62-.277 3.171-.863 4.743-1.792 2.456-1.451 4.663-3.416 7.159-6.373l.549-.65-.555-.646c-2.353-2.734-5.044-5.497-8.769-7.186-1.616-.733-3.266-1.105-4.903-1.105" fill="#160c4b" fill-rule="evenodd" data-name="Path 31"/><path d="M41.262 33.032a4.255 4.255 0 0 1-3.031-1.273 4.292 4.292 0 0 1-1.252-3.073c.018-2.345 1.948-4.254 4.303-4.254a4.278 4.278 0 0 1 3.047 1.274 4.29 4.29 0 0 1 1.249 3.07c-.017 2.347-1.947 4.256-4.303 4.256h-.013Z" fill="#00cbfa" fill-rule="evenodd" data-name="Path 32"/></g></g><defs><clipPath id="a"><path d="M0 0h69.514v69.458H0V0z" data-name="Rectangle 127"/></clipPath></defs></svg>