<svg xmlns="http://www.w3.org/2000/svg" width="278.687" height="279.461" viewBox="229 4676.688 69.672 69.865"><g data-name="Group 126"><g data-name="Group 125" transform="translate(229 4676.688)" clip-path="url(&quot;#a&quot;)"><path d="M65.181 20.508c-.13 2.008-.272 4.017-.378 6.026-.014.269.098.584.248.816 1.414 2.185 2.856 4.35 4.268 6.538.188.291.33.66.35 1a1.7 1.7 0 0 1-.256.959c-1.466 2.285-2.966 4.55-4.44 6.83-.124.191-.192.46-.182.69.06 1.306.154 2.611.23 3.916.08 1.362.142 2.726.231 4.087.054.816-.289 1.36-1.013 1.72a738.235 738.235 0 0 0-7.122 3.578 1.306 1.306 0 0 0-.528.536c-1.216 2.363-2.413 4.735-3.614 7.104-.424.834-.871 1.081-1.805 1.028a886.98 886.98 0 0 0-7.934-.43 1.354 1.354 0 0 0-.752.219 914.943 914.943 0 0 0-6.68 4.422c-.643.43-1.258.42-1.9-.007-2.213-1.474-4.436-2.932-6.65-4.405a1.316 1.316 0 0 0-.856-.245c-1.883.119-3.766.224-5.65.33-.772.044-1.544.079-2.316.12-.85.043-1.374-.393-1.739-1.121a937.764 937.764 0 0 0-3.58-7.083 1.063 1.063 0 0 0-.434-.435c-2.325-1.187-4.657-2.36-6.986-3.538a4.804 4.804 0 0 1-.619-.36c-.403-.288-.633-.677-.607-1.189.079-1.486.153-2.974.238-4.461.075-1.306.17-2.61.234-3.916a1.018 1.018 0 0 0-.154-.567C3.365 40.49 1.93 38.318.5 36.145c-.069-.105-.132-.213-.202-.317-.428-.634-.38-1.25.04-1.873.655-.97 1.296-1.95 1.94-2.926.834-1.261 1.674-2.518 2.488-3.791.123-.193.185-.466.173-.697-.124-2.407-.269-4.813-.41-7.22-.015-.273-.042-.544-.063-.816-.057-.808.296-1.369 1.016-1.728 1.533-.764 3.06-1.544 4.591-2.313.903-.453 1.813-.894 2.712-1.352a.724.724 0 0 0 .299-.296c1.188-2.351 2.367-4.706 3.55-7.06.532-1.063.948-1.29 2.138-1.22 2.52.15 5.039.283 7.558.436.37.022.675-.062.986-.27 2.115-1.415 4.24-2.814 6.363-4.218.086-.056.175-.107.26-.165.637-.442 1.264-.414 1.9.015.83.558 1.67 1.1 2.503 1.654 1.4.93 2.795 1.87 4.205 2.786.193.125.463.204.692.192a715.69 715.69 0 0 0 8.002-.427c.85-.05 1.422.273 1.805 1.045 1.114 2.247 2.293 4.464 3.369 6.73.288.607.702.917 1.251 1.188 2.198 1.086 4.384 2.197 6.583 3.28.727.359 1.078.899 1.018 1.715-.048.669-.067 1.34-.1 2.01h.013m-17.73 41.7 2.985.173c.18.01.33.02.442-.205 1.117-2.247 2.254-4.484 3.379-6.727a2.364 2.364 0 0 1 1.092-1.079c2.21-1.112 4.413-2.244 6.622-3.358.257-.13.368-.268.348-.57-.137-2.134-.235-4.27-.388-6.403-.083-1.152.043-2.179.764-3.177 1.33-1.841 2.527-3.778 3.783-5.672.101-.153.151-.264.027-.45-1.246-1.874-2.437-3.785-3.732-5.624-.66-.936-1.01-1.886-.85-3.019.018-.123.02-.25.027-.374.124-2.134.247-4.268.373-6.402.01-.178-.037-.28-.213-.37-2.208-1.117-4.404-2.258-6.62-3.362a2.86 2.86 0 0 1-1.34-1.342c-1.086-2.187-2.177-4.37-3.278-6.549-.05-.098-.217-.199-.326-.194-1.055.045-2.11.117-3.165.172-1.556.081-3.111.15-4.666.234-.441.024-.826-.11-1.187-.346-2.11-1.382-4.223-2.76-6.327-4.15-.246-.164-.417-.165-.663 0A547.595 547.595 0 0 1 28.32 7.48a2.811 2.811 0 0 1-1.097.408c-.444.062-.906-.001-1.36-.026-2.203-.118-4.405-.24-6.606-.368-.205-.011-.297.065-.386.243-1.12 2.232-2.254 4.458-3.375 6.69a2.48 2.48 0 0 1-1.16 1.15c-2.227 1.104-4.446 2.227-6.67 3.335-.18.09-.257.193-.24.394.036.476.059.952.086 1.43.115 2.031.226 4.065.346 6.097.034.553-.082 1.05-.393 1.517-1.357 2.045-2.698 4.1-4.052 6.148-.303.458-.313.448-.004.914 1.332 2.008 2.655 4.021 3.995 6.024.344.514.497 1.058.453 1.673-.06.816-.104 1.634-.146 2.452-.087 1.658-.166 3.317-.255 4.975-.01.204.04.327.239.427 2.261 1.138 4.516 2.29 6.776 3.428.436.219.755.532.974.963 1.123 2.218 2.257 4.432 3.365 6.658.145.295.296.381.61.361 2.258-.142 4.517-.268 6.775-.396.797-.045 1.556-.043 2.28.454 2.013 1.383 4.07 2.702 6.1 4.061.244.164.404.149.633-.005 2.001-1.34 4.014-2.664 6.012-4.008a2.884 2.884 0 0 1 1.895-.509c1.27.092 2.542.142 4.337.236" fill="#00cbfa" fill-rule="evenodd" data-name="Path 65"/><path d="M34.836 13.181c12.47.14 21.85 10.226 21.753 21.895-.097 11.755-9.487 21.589-21.75 21.587-12.07-.002-21.75-9.729-21.674-21.859.075-11.952 9.586-21.435 21.671-21.623m0 2.917c-10.364-.074-18.871 8.615-18.81 18.872a18.875 18.875 0 0 0 18.807 18.817c10.22.066 18.88-8.274 18.888-18.863.009-10.311-8.421-18.908-18.885-18.826" fill="#00cbfa" fill-rule="evenodd" data-name="Path 66"/><path d="M45.099 29.434c-.008.538-.244.918-.58 1.244-.638.616-1.278 1.23-1.922 1.839a7377.96 7377.96 0 0 1-8.958 8.442 5.758 5.758 0 0 1-.77.616c-.495.329-1.008.31-1.5-.021a3.541 3.541 0 0 1-.55-.453 1566.884 1566.884 0 0 1-5.575-5.757c-.396-.412-.71-.886-.535-1.497.294-1.026 1.487-1.42 2.28-.705.91.82 1.745 1.724 2.608 2.597.807.817 1.611 1.636 2.407 2.463.18.187.277.05.39-.056.664-.622 1.327-1.244 1.987-1.868 2.684-2.539 5.366-5.08 8.05-7.618.638-.603 1.207-.728 1.852-.42.523.25.767.685.816 1.194" fill="#fff" fill-rule="evenodd" data-name="Path 67"/></g></g><defs><clipPath id="a"><path d="M0 0h69.671v69.865H0V0z" data-name="Rectangle 135"/></clipPath></defs></svg>