<svg xmlns="http://www.w3.org/2000/svg" width="239.49" height="256.968" viewBox="269.064 1729.879 59.873 64.242"><g data-name="Group 116" transform="translate(269.064 1729.879)" clip-path="url(&quot;#a&quot;)"><path d="M29.866 59.837c-5.846 0-11.258-1.593-16.086-4.735C6.812 50.57 2.411 44.22.697 36.228-2.385 21.868 4.969 7.89 18.577 2.24A28.84 28.84 0 0 1 27.573.106c.082-.006.16-.031.24-.052L28.028 0h3.761c.42.055.782.1 1.143.145.774.097 1.573.197 2.356.353 10.1 2.02 17.449 7.733 21.841 16.98 2.72 5.724 3.422 11.97 2.09 18.564-.182.89-.706 1.4-1.442 1.4-.112 0-.227-.013-.345-.037-.838-.175-1.252-.878-1.105-1.88.155-1.062.303-2.126.456-3.226l.122-.88-5.877-.001c-.582-.001-1.05-.168-1.357-.48-.259-.264-.391-.62-.383-1.032.016-.889.675-1.442 1.72-1.445h5.786C56.439 15.09 44.966 3.594 31.419 3.036v1.669c-.001 1.39-.002 2.779.001 4.168.003.83-.324 1.37-.97 1.61a1.546 1.546 0 0 1-.53.097c-.813 0-1.43-.69-1.436-1.604a578.243 578.243 0 0 1-.005-4.093V3.06c-11.942.274-24.799 10.4-25.428 25.385h5.823c1.252.003 1.702.756 1.705 1.46.002.908-.648 1.474-1.698 1.478-.821.004-5.57.004-5.57.004h-.224c.228 13.158 11.918 24.871 25.36 25.407v-5.896c0-1.107.611-1.42.975-1.507.134-.032.286-.049.44-.049.224 0 .645.037.952.283.37.298.546.883.553 1.3.028 1.396.024 2.793.02 4.19l-.001 1.765 3.782-.494c.121-.032.174-.045.228-.055.12-.02.236-.028.346-.028.79 0 1.39.472 1.526 1.202a1.41 1.41 0 0 1-.228 1.076c-.24.345-.628.577-1.09.654l-.463.078c-1.038.175-2.113.357-3.187.434-.816.059-1.634.089-2.434.089" fill="#160c4b" fill-rule="evenodd" data-name="Path 39"/><path d="M47.432 64.242c-.462 0-.91-.237-1.334-.705l-9.453-10.462c-.233-.257-.85-.939-.441-1.867.427-.974 1.365-.974 1.674-.974.53.007 1.014.009 1.503.009l1.677-.003.001-13.214c0-1.606.514-2.121 2.114-2.121h8.66c1.38.002 1.945.572 1.945 1.967V50.24l1.677.003c.479 0 .95-.002 1.422-.01h.03c.394 0 1.298.023 1.719.922.451.963-.21 1.694-.428 1.935-1.655 1.829-9.453 10.462-9.453 10.462-.414.458-.856.69-1.313.69m-.007-3.636 6.693-7.41h-3.285V37.894h-6.838v15.32H40.75l6.675 7.392Z" fill="#fff" fill-rule="evenodd" data-name="Path 40"/><path d="M29.861 47.155c-.705-.037-1.209-.478-1.346-1.18a2.891 2.891 0 0 1-.035-.617l.001-11.42c-2.222-1.2-3.057-2.676-2.702-4.757.296-1.74 1.782-3.182 3.531-3.428.236-.032.464-.049.685-.049 1.68 0 3.009.955 3.956 2.839l11.617-.002c.138 0 .278.003.416.013.832.061 1.435.674 1.435 1.458 0 .808-.61 1.42-1.45 1.454-.371.016-.744.02-1.116.02l-1.034-.004h-9.922c-.481 1.145-1.275 1.947-2.419 2.446.02.006-.044.17-.044.279-.015 2.648-.015 5.298-.015 7.947v3.098c.001.246.003.526-.065.8-.168.692-.69 1.106-1.393 1.106l-.1-.003Zm.076-18.48c-.707 0-1.285.57-1.29 1.27-.003.342.13.665.374.91.242.246.564.381.906.382.723 0 1.292-.561 1.299-1.277a1.26 1.26 0 0 0-.36-.902 1.292 1.292 0 0 0-.919-.383l-.01-.44v.44Z" fill="#160c4b" fill-rule="evenodd" data-name="Path 41"/><path d="M19.215 12.822c-.525 0-1-.287-1.305-.787a30.982 30.982 0 0 1-1.153-2.011c-.248-.48-.237-1.026.027-1.458.28-.46.786-.722 1.387-.722.051 0 .301.017.301.017l.11.095c.032.028.076.058.125.094.184.136.437.321.62.59.393.58.73 1.2 1.054 1.799l.057.104c.439.808.222 1.688-.515 2.093a1.462 1.462 0 0 1-.708.186" fill="#160c4b" fill-rule="evenodd" data-name="Path 42"/><path d="M11.388 20.651c-.29 0-.584-.082-.876-.244-.595-.331-1.299-.728-1.995-1.163-.604-.379-.83-1.011-.605-1.693.15-.456.534-1 1.507-1h.074l.07.025c.195.057.376.108.549.202.636.353 1.27.711 1.89 1.091.807.494 1.051 1.326.607 2.069-.27.453-.716.713-1.221.713" fill="#160c4b" fill-rule="evenodd" data-name="Path 43"/><path d="M48.485 20.664c-.527 0-.999-.294-1.262-.788-.38-.715-.147-1.52.567-1.96.796-.49 1.45-.863 2.057-1.178.235-.121.48-.183.726-.183.72 0 1.452.572 1.458 1.665v.143l-.084.117c-.017.023-.034.057-.056.096-.106.186-.267.469-.542.655-.718.485-1.469.898-2.11 1.237-.246.13-.5.196-.754.196" fill="#160c4b" fill-rule="evenodd" data-name="Path 44"/><path d="M9.277 43.31c-.518 0-.988-.282-1.256-.755-.394-.696-.193-1.511.479-1.937a26.002 26.002 0 0 1 2.165-1.251c.225-.114.457-.171.693-.171.82 0 1.433.688 1.457 1.637l.004.148-.087.12c-.02.029-.043.068-.069.113-.111.195-.28.49-.563.683-.682.463-1.418.866-2.113 1.232-.228.12-.467.18-.71.18" fill="#160c4b" fill-rule="evenodd" data-name="Path 45"/><path d="M18.233 51.995c-.644 0-1.18-.268-1.468-.734-.256-.414-.271-.915-.044-1.373a23.6 23.6 0 0 1 1.253-2.172c.277-.435.715-.685 1.202-.685.248 0 .5.067.73.194.697.384.965 1.224.611 1.913-.42.82-.843 1.545-1.293 2.22-.181.275-.477.427-.653.517l-.083.045-.107.068-.148.007Z" fill="#160c4b" fill-rule="evenodd" data-name="Path 46"/><path d="M40.666 12.8c-.26 0-.524-.075-.76-.22-.7-.424-.897-1.26-.478-2.033.399-.736.776-1.388 1.152-1.992.293-.47.724-.737 1.184-.737.205 0 .409.052.605.157.312.167.527.434.716.67.065.08.127.156.19.223l.186.199s-.174.483-.204.573c-.069.202-.12.348-.195.482-.35.631-.708 1.26-1.084 1.878-.31.509-.788.8-1.312.8" fill="#160c4b" fill-rule="evenodd" data-name="Path 47"/></g><defs><clipPath id="a"><path d="M0 0h59.872v64.242H0V0z" data-name="Rectangle 130"/></clipPath></defs></svg>