<svg xmlns="http://www.w3.org/2000/svg" width="279.001" height="244.407" viewBox="719 3872 69.75 61.102"><g data-name="Group 142"><g data-name="Group 141" transform="translate(719 3872)" clip-path="url(&quot;#a&quot;)"><path d="M34.63 61.102c-1.46-.008-2.836-.603-3.872-1.678-1.055-1.094-1.633-2.565-1.588-4.036.083-2.616 2.18-5.349 5.541-5.393 2.302-.029 4.143-.24 5.797-.666a24.316 24.316 0 0 0 9.146-4.563c3.706-2.946 6.318-6.789 7.763-11.424.99-3.175 1.276-6.547.852-10.022-.558-4.544-2.354-8.629-5.34-12.143-1.622-1.91-3.285-3.391-5.083-4.53-2.86-1.81-5.598-2.924-8.372-3.406a27.764 27.764 0 0 0-4.585-.42h-.124c-3.074 0-6.035.581-8.8 1.729-2.814 1.167-5.3 2.774-7.387 4.778-2.4 2.303-4.307 5.138-5.667 8.428-1.136 2.75-1.67 5.673-1.631 8.935.035 2.928.608 5.944 1.7 8.967.044.118.086.239.126.362-.85-.002-3.754-.009-4.397-.012a179.626 179.626 0 0 1-3.024-.037c-2.148-.048-3.782-.937-4.856-2.64-.552-.876-.822-1.917-.826-3.182-.01-2.74.01-5.477.037-8.216.028-2.965 2.553-5.39 5.63-5.406l1.508.001c.787.004 1.576.014 2.364.026.844 0 1.106-.582 1.192-.774 2.22-4.925 5.702-8.913 10.349-11.851C23.947 2.116 27.16.939 30.905.33 32.255.11 33.607 0 34.922 0h.128c1.062.006 2.133.084 3.183.231 4.193.592 7.771 1.904 10.942 4.013 4.01 2.666 7.124 6.149 9.26 10.35.255.503.505 1.01.733 1.528.201.453.556.685 1.054.688l.437.001 2.102.02c.368 0 .737-.005 1.104-.017l.203-.004c3.291.016 5.662 2.473 5.679 5.842.011 2.221-.006 4.443-.025 6.665l-.011 1.271c-.027 3.35-2.319 5.074-4.272 5.531-.405.094-.84.145-1.294.15a75.75 75.75 0 0 1-.98.005l-.601-.001c-.674-.004-1.349-.012-2.022-.02l-.337-.005c-.563 0-.942.242-1.168.743-2.717 6.01-7.091 10.486-13.002 13.3-1.427.68-3.019 1.238-4.867 1.706-.582.15-.877.537-.878 1.155-.001.264.001.53.004.795.01.801.017 1.547-.065 2.283-.268 2.397-2.08 4.314-4.514 4.772-.35.067-.706.1-1.06.1h-.024Zm2.12-8.388c-.261.014-.523.023-.784.031-.602.02-1.223.042-1.844.145-1.366.229-2.275 1.453-2.16 2.914.102 1.313 1.197 2.414 2.492 2.506.074.005.148.008.22.008 1.454 0 2.578-.906 2.753-2.203.085-.636.07-1.278.054-1.897-.007-.275-.014-.547-.013-.824l.004-.723-.722.043Zm23.835-32.26c.926 4.02.893 8.018-.106 12.22l-.204.86.884-.025c.304-.01.604-.013.9-.016l.185-.002c.844-.008 1.632-.017 2.435-.106 1.23-.138 2.202-1.27 2.217-2.577.03-2.81.045-5.622.043-8.434-.002-1.402-1.037-2.593-2.358-2.71a14.719 14.719 0 0 0-1.32-.057h-.132c-.282 0-.565.004-.853.009-.282.004-.558.007-.837.007l-1.045-.003.191.833ZM6.46 19.323c-.39 0-.777.01-1.161.041-1.46.118-2.445 1.235-2.454 2.778l-.041 8.184c-.007 1.585 1.132 2.782 2.71 2.846.388.016.778.02 1.168.022l2.66.012-.171-.821c-.93-4.418-.9-8.4.087-12.175l.222-.846-.874-.005c-.317-.001-.628-.009-.936-.017l-.086-.002c-.347-.008-.672-.016-.994-.018h-.13Z" fill="#160c4b" fill-rule="evenodd" data-name="Path 92"/><path d="M34.085 44.45c-1.074 0-2.148-.003-3.223-.01l-8.647-.05c-1.828-.009-3.654-.017-5.483-.021.015-.976.017-1.918.012-2.857 1.732-.281 3-1.207 3.773-2.756.193-.388.387-.983-.152-1.68-1.752-2.267-2.838-4.875-3.32-7.971-.585-3.772-.048-7.33 1.597-10.576 2.59-5.113 6.582-8.343 11.863-9.604a20.509 20.509 0 0 1 4.75-.585h.094c4.827.025 9.155 2.02 12.865 5.928 2.356 2.485 3.86 5.58 4.47 9.204.523 3.104.214 6.146-.943 9.297-.963 2.628-2.496 4.893-4.688 6.929-2.801 2.599-6.158 4.118-10.261 4.642-.801.102-1.628.11-2.406.11h-.3Zm.872-33.314c-.61 0-1.24.036-1.871.106-4.065.456-7.43 2.309-10.004 5.507-3.134 3.899-4.156 8.353-3.037 13.24.566 2.476 1.77 4.719 3.678 6.853-.094 1.183-.315 2.482-1.07 3.695l-.6.968 1.352.082c.154.012.288.021.422.022l11.12.053c1.792 0 3.41-.281 4.944-.858 4.083-1.535 7.038-4.193 8.782-7.9 1.276-2.713 1.734-5.52 1.36-8.343-.508-3.83-2.157-7.009-4.904-9.447-2.953-2.62-6.348-3.96-10.09-3.978h-.082Z" fill="#fff" fill-rule="evenodd" data-name="Path 93"/><path d="M25.144 27.747c.01-.945.012-1.87.01-2.794.489.006.969.01 1.45.012l1.343.003c-.005.94-.008 1.868-.009 2.795-.595-.005-2.794-.016-2.794-.016" fill="#160c4b" fill-rule="evenodd" data-name="Path 94"/><path d="M33.473 27.79c.009-.942.012-1.87.01-2.795.476.006.94.01 1.403.012l1.39.003c-.004.941-.008 1.868-.007 2.794-.131-.002-2.204-.012-2.796-.013" fill="#160c4b" fill-rule="evenodd" data-name="Path 95"/><path d="m43.253 27.837-1.451-.003c.007-.936.012-1.867.01-2.795.596.005 2.793.017 2.793.017-.006.937-.008 1.865-.008 2.793-.448-.005-.897-.01-1.344-.012" fill="#160c4b" fill-rule="evenodd" data-name="Path 96"/></g></g><defs><clipPath id="a"><path d="M0 0h69.75v61.102H0V0z" data-name="Rectangle 141"/></clipPath></defs></svg>