<svg xmlns="http://www.w3.org/2000/svg" width="267.676" height="303.915" viewBox="2000 2706 66.919 75.979"><g data-name="Group 162"><g data-name="Group 109" transform="translate(2000 2706)" clip-path="url(&quot;#a&quot;)"><path d="M33.554 44.508h-9.486c-.278 0-.604.092-.825-.021-.51-.264-1.186-.53-1.385-.978-.179-.402.055-1.14.347-1.564.449-.65 1.104-1.158 1.672-1.725 6.314-6.313 12.626-12.626 18.941-18.938 1.176-1.176 1.794-1.185 2.951-.029 6.773 6.77 13.542 13.544 20.317 20.313.569.567 1.08 1.139.704 2.021-.37.871-1.121.931-1.934.927-3.274-.014-6.55-.006-9.823-.006h-1.089v1.078c0 6.209.001 12.418 0 18.628 0 .308.02.623-.032.924-.126.745-.785 1.287-1.508 1.232-.772-.058-1.246-.498-1.396-1.254-.054-.268-.028-.554-.028-.831V43.618c0-1.635.444-2.074 2.095-2.075 2.837-.002 5.675 0 8.356 0l-17.154-17.14c-5.588 5.585-11.366 11.363-17.096 17.092 0-.001.222.044.444.044 2.347.006 4.695-.002 7.043.006 1.327.004 1.848.522 1.848 1.855.005 9.144.005 18.288 0 27.432 0 1.168-.558 1.848-1.482 1.847-.924-.002-1.478-.68-1.478-1.85-.005-8.372-.002-16.744-.002-25.115v-1.206" fill="#00cbfa" fill-rule="evenodd" data-name="Path 33"/><path d="m23.095 3.891-12.424 12.44h4.657c2.926 0 3.024.098 3.024 3.001v18.81c0 .278.014.558-.01.834-.074.87-.7 1.465-1.505 1.447-.769-.017-1.362-.593-1.439-1.416-.026-.276-.011-.556-.011-.834l-.001-17.791v-1.085c-2.549 0-5.011.004-7.473-.003-.91-.002-1.923.204-2.401-.91-.482-1.126.383-1.699 1.025-2.342C11.579 10.993 16.625 5.949 21.671.904c1.207-1.207 1.8-1.206 3.016.009 5.134 5.132 10.266 10.265 15.398 15.398.131.131.267.258.391.395.452.495.746 1.126.319 1.671-.334.425-.952.862-1.458.878-2.62.087-5.245.041-8.008.041v.92c0 2.07.007 4.139-.004 6.209-.005 1.09-.578 1.758-1.472 1.763-.898.004-1.482-.662-1.486-1.748-.01-2.78-.011-5.56 0-8.34.004-1.218.54-1.757 1.749-1.765 1.844-.013 3.689-.003 5.42-.003L23.095 3.891" fill="#160c4b" fill-rule="evenodd" data-name="Path 34"/><path d="M5.388 75.281c-1.412-.004-2.126-1.056-1.723-2.014.118-.28.303-.537.48-.787 5.903-8.343 11.809-16.684 17.715-25.024.124-.177.244-.359.386-.521.563-.638 1.344-.758 1.989-.314.661.453.822 1.297.383 2.054-.108.186-.24.358-.365.534-5.906 8.341-11.807 16.685-17.732 25.012-.346.486-.887.834-1.133 1.06" fill="#00cbfa" fill-rule="evenodd" data-name="Path 35"/><path d="M6.102 58.444A6.09 6.09 0 0 1 0 52.326c.006-3.369 2.771-6.125 6.133-6.114 3.367.011 6.106 2.77 6.102 6.145a6.092 6.092 0 0 1-6.133 6.087m3.167-6.105a3.183 3.183 0 0 0-3.109-3.161c-1.735-.03-3.196 1.419-3.194 3.167a3.116 3.116 0 0 0 3.108 3.134c1.787.017 3.197-1.368 3.195-3.14" fill="#00cbfa" fill-rule="evenodd" data-name="Path 36"/><path d="M16.496 69.834a6.082 6.082 0 0 1 6.127-6.089 6.096 6.096 0 0 1 6.109 6.115c-.006 3.36-2.781 6.129-6.134 6.119-3.367-.01-6.107-2.77-6.102-6.145m2.966.048c.015 1.71 1.431 3.123 3.137 3.132 1.736.008 3.184-1.456 3.167-3.202-.018-1.768-1.447-3.138-3.236-3.101-1.736.035-3.083 1.428-3.068 3.171" fill="#00cbfa" fill-rule="evenodd" data-name="Path 37"/></g></g><defs><clipPath id="a"><path d="M0 0h66.919v75.979H0V0z" data-name="Rectangle 128"/></clipPath></defs></svg>