<svg xmlns="http://www.w3.org/2000/svg" width="189.809" height="198.332" viewBox="1363.274 4255 47.452 49.583"><g data-name="Group 144"><g data-name="Group 143" transform="translate(1363.273 4255)" clip-path="url(&quot;#a&quot;)"><path d="M31.95 42.44c0-1.7-.007-3.4.005-5.1.002-.396-.083-.735-.317-1.066-1.214-1.72-1.658-3.676-1.396-5.72.455-3.535 2.403-6.022 5.786-7.176 3.239-1.106 6.223-.448 8.74 1.897 1.938 1.805 2.812 4.108 2.67 6.743-.088 1.648-.608 3.185-1.613 4.53-.077.104-.107.266-.107.4-.006 3.601-.003 7.201-.005 10.802 0 1.008-.67 1.752-1.648 1.828-.416.032-.786-.118-1.124-.346-1.273-.858-2.55-1.711-3.814-2.582-.23-.159-.389-.17-.624-.007-1.21.838-2.437 1.651-3.649 2.486-.636.438-1.29.63-2.013.24-.682-.368-.935-.967-.93-1.72.01-1.736.003-3.472.003-5.209h.036m7.07-16.058c-2.68-.141-5.243 1.96-5.349 4.966-.101 2.868 2.182 5.165 4.875 5.32 2.751.158 5.236-2.045 5.418-4.804.222-3.392-2.622-5.541-4.944-5.482m3.178 18.193v-5.103c-2.277.918-4.53.924-6.792-.018v5.086c.132-.08.225-.132.313-.19.731-.491 1.454-.997 2.196-1.471.561-.358 1.153-.359 1.729-.016.288.171.564.365.843.552l1.711 1.16" fill="#fff" fill-rule="evenodd" data-name="Path 97"/><path d="M24.715.001c7.195.245 12.226 6.171 11.918 12.767-.316 6.782-5.884 11.94-12.702 11.655-6.869-.288-11.903-5.97-11.699-12.625C12.433 5.216 17.886-.105 24.715.001m8.455 12.12c-.037-4.827-3.937-8.51-8.537-8.631-5.144-.137-8.818 4.202-8.937 8.353a8.786 8.786 0 0 0 8.7 9.115c4.364.037 8.788-3.418 8.774-8.837" fill="#160c4b" fill-rule="evenodd" data-name="Path 98"/><path d="M3.427 45.4h.414c6.33 0 12.66 0 18.99-.002.781 0 1.403.274 1.754 1.01a1.699 1.699 0 0 1-1.212 2.422c-.194.04-.396.06-.595.06-6.92.003-13.842.003-20.763 0-.241-.002-.491-.029-.725-.093-.776-.213-1.293-.83-1.29-1.629.008-1.78-.027-3.569.117-5.34a13.303 13.303 0 0 1 1.554-5.213c.879-1.644 1.92-3.176 3.31-4.436a16.683 16.683 0 0 1 5.31-3.26c1.79-.682 3.641-.981 5.548-.981 2.346-.001 4.693-.002 7.04 0 .76.001 1.361.29 1.704 1.002a1.7 1.7 0 0 1-1.23 2.432 3.346 3.346 0 0 1-.622.056c-2.328.004-4.657.01-6.985.001-2.972-.01-5.619.928-7.881 2.834-2.423 2.04-3.884 4.66-4.278 7.816-.136 1.085-.11 2.19-.16 3.32" fill="#160c4b" fill-rule="evenodd" data-name="Path 99"/></g></g><defs><clipPath id="a"><path d="M0 0h47.453v49.582H0V0z" data-name="Rectangle 142"/></clipPath></defs></svg>