<svg xmlns="http://www.w3.org/2000/svg" width="250.187" height="219.991" viewBox="1348 2939 62.547 54.998"><g data-name="Group 135"><g data-name="Group 16" transform="translate(1348 2939)" clip-path="url(&quot;#a&quot;)"><path d="M0 50.11V8.698c.49-1.055 1.325-1.37 2.462-1.361 5.088.04 10.176.017 15.264.017h.722c0-.667-.014-1.237.003-1.806.09-3.117 2.338-5.462 5.453-5.503 4.905-.064 9.81-.056 14.715-.003 2.92.031 5.071 2.037 5.416 4.94.092.772.014 1.564.014 2.372h.87l15.51.001c1.42.001 2.113.673 2.114 2.084.004 13.29.012 26.581-.021 39.872a6.149 6.149 0 0 1-.553 2.528c-1.03 2.19-2.882 3.157-5.27 3.157H23.178c-5.78 0-11.56-.003-17.34.002-1.953.001-3.631-.641-4.736-2.284C.585 51.946.358 50.984 0 50.11m22.113-17.103h-.736c-3.073 0-6.147.002-9.22 0-2.844-.003-4.778-1.398-5.68-4.097-.852-2.544-1.7-5.089-2.551-7.632-.052-.156-.122-.306-.24-.598-.013.246-.02.326-.02.407-.001 9.404-.003 18.809 0 28.213.001 1.303.741 2.03 2.06 2.03 17.017.002 34.035.002 51.052 0 1.389 0 2.101-.717 2.102-2.11.002-9.324.001-18.647 0-27.97 0-.14-.024-.278-.036-.418-.976 2.683-1.87 5.36-2.764 8.038-.917 2.746-2.832 4.135-5.71 4.137-3.074.002-6.148 0-9.222 0h-.714c0 .622.01 1.187-.003 1.752-.024 1.127-.758 1.903-1.87 1.906-4.866.013-9.73.013-14.596-.001-1.081-.003-1.819-.777-1.85-1.865-.016-.567-.002-1.136-.002-1.792m36.042-21.95H4.406c.034.12.052.196.077.27C6.321 16.841 8.155 22.356 10 27.867c.362 1.079.943 1.473 2.107 1.475 3.155.004 6.31.002 9.465 0 .174 0 .348-.023.54-.037 0-.606-.009-1.155.003-1.704.024-1.156.765-1.916 1.923-1.918 4.824-.01 9.648-.01 14.472 0 1.157.002 1.899.762 1.923 1.918.012.564.002 1.128.002 1.742H50.195c1.504 0 1.982-.345 2.455-1.763.964-2.892 1.931-5.782 2.895-8.674.866-2.6 1.73-5.2 2.61-7.85M22.12 7.312h18.316c0-.55.003-1.055 0-1.562-.011-1.34-.734-2.056-2.09-2.06-2.115-.004-4.23 0-6.345 0-2.644 0-5.288-.007-7.932.003-1.091.003-1.876.688-1.942 1.703-.04.624-.007 1.253-.007 1.916m14.64 22.068h-10.94v3.58h10.94v-3.58Z" fill="#79c262" fill-rule="evenodd" data-name="Path 19"/></g><path d="M3 0h13a3 3 0 0 1 3 3v7a3 3 0 0 1-3 3H3a3 3 0 0 1-3-3V3a3 3 0 0 1 3-3z" stroke-linejoin="round" stroke-linecap="round" stroke-width="5" stroke="#160c4b" fill="transparent" transform="matrix(.73684 0 0 .61538 1372.5 2966.5)" data-name="Rectangle 138"/></g><defs><clipPath id="a"><path d="M0 0h62.547v54.998H0V0z" data-name="Rectangle 42"/></clipPath></defs></svg>