<svg xmlns="http://www.w3.org/2000/svg" width="268.556" height="285.246" viewBox="788 2923 67.139 71.311"><g data-name="Group 19"><g data-name="Group 18" transform="translate(788 2923)" clip-path="url(&quot;#a&quot;)"><path d="M33.546 71.31c-9.53 0-19.061-.003-28.592.002-1.023 0-2.015-.087-2.901-.672C.748 69.778.012 68.573.01 67.012-.004 54.503-.001 41.994.006 29.485c.001-1.408.64-2.517 1.696-3.432C8.353 20.284 14.995 14.505 21.641 8.73c2.873-2.497 5.742-4.999 8.62-7.49 1.901-1.643 4.151-1.655 6.057-.028 9.65 8.237 19.29 16.486 28.95 24.712 1.276 1.086 1.874 2.386 1.87 4.064-.02 12.12-.01 24.24-.011 36.36 0 3.261-1.705 4.96-4.99 4.96-9.53.003-19.06.001-28.591.001m.013-3.728 28.662-.001c1.072 0 1.177-.105 1.177-1.136 0-12.144-.003-24.287.01-36.43 0-.541-.16-.91-.575-1.263-9.496-8.095-18.981-16.203-28.47-24.306-1.063-.908-1.07-.904-2.106-.003-9.282 8.066-18.56 16.137-27.853 24.19-.498.432-.69.87-.689 1.527.019 12.04.014 24.08.014 36.119 0 1.248.054 1.303 1.323 1.303H33.56" fill="#79c262" fill-rule="evenodd" data-name="Path 20"/><path d="M20.884 39.237c-4.948-4.13-3.649-10.402-.393-13.31 3.426-3.062 9.013-2.687 11.98.818 2.854 3.369 3.297 9.855-2.168 13.148.875.6 1.794 1.167 2.641 1.826.833.648 1.594 1.39 2.362 2.068.288-.718.668-1.615 1.01-2.526.364-.974 1.045-1.408 2.078-1.407 6.11.01 12.219.002 18.328.007 1.616.002 2.458 1.225 1.864 2.74-1.556 3.969-3.115 7.937-4.71 11.892-1.025 2.544-3.209 3.963-6.016 3.966-6.808.006-13.616.007-20.425-.008-.55-.001-.965.13-1.382.512-.973.894-2.16 1.28-3.484 1.276-2.408-.01-4.815.016-7.223-.006-5.333-.05-8.66-4.795-6.869-9.83 1.13-3.175 3.317-5.576 5.88-7.661 1.918-1.561 4.008-2.83 6.527-3.505m7.083 15.494c.9 0 1.751.025 2.6-.018.194-.01.474-.21.55-.391.739-1.791 1.448-3.595 2.15-5.402.065-.17.082-.416.008-.573-1.874-3.958-5.352-6.634-10.172-5.74-5.36.992-8.883 4.416-11.19 9.176-.955 1.97.67 4.605 2.858 4.683 2.663.096 5.331.034 7.997.025.63-.002 1.08-.331 1.308-.922.397-1.03-.25-2.03-1.382-2.063-1.448-.042-2.9.01-4.348-.028-1.223-.031-1.935-.754-1.934-1.87.001-1.115.726-1.825 1.944-1.84 1.527-.02 3.056-.034 4.582.015 2.324.074 4.318 1.749 4.842 4.003.069.297.119.598.187.945m7.102-.062c.187.032.263.057.34.057 4.19.003 8.379.011 12.568 0 1.218-.003 2.047-.61 2.495-1.743 1.167-2.953 2.337-5.905 3.501-8.86.06-.152.08-.321.13-.535-4.8 0-9.532-.008-14.263.025-.224.002-.554.32-.653.563-1.319 3.254-2.606 6.521-3.897 9.786-.083.208-.135.429-.22.707m-4.273-22.265c.004-2.763-1.988-4.809-4.695-4.822-2.697-.013-4.736 2.027-4.77 4.77-.032 2.75 2.044 4.871 4.758 4.862 2.709-.009 4.703-2.046 4.707-4.81" fill="#160c4b" fill-rule="evenodd" data-name="Path 21"/></g></g><defs><clipPath id="a"><path d="M0 0h67.139v71.312H0V0z" data-name="Rectangle 43"/></clipPath></defs></svg>