<svg xmlns="http://www.w3.org/2000/svg" width="267.788" height="264.701" viewBox="-140.847 -209.883 66.947 66.175"><g data-name="Group 123" transform="translate(-140.847 -209.883)" clip-path="url(&quot;#a&quot;)"><path d="M26.212 25.105c-3.458-3.555-2.249-8.144.16-10.215 2.705-2.324 6.816-2.217 9.337.245 2.271 2.218 3.177 6.593-.071 9.918.147.083.278.168.42.236 3.45 1.65 5.648 4.347 6.655 8.021.11.402.256.527.678.526 5.566-.016 11.132-.01 16.697-.01 1.2 0 1.732.532 1.732 1.73.001 1.17-.004 2.34.002 3.51.004.68-.286 1.175-.919 1.43-1.205.484-2.415.96-3.632 1.412-.382.142-.595.343-.706.753-.534 1.994-1.336 3.881-2.35 5.68-.092.165-.067.462.014.648.482 1.111 1.006 2.205 1.5 3.312.473 1.065.4 1.452-.432 2.29-1.536 1.542-3.08 3.075-4.62 4.613-.21.209-.424.413-.635.62-.541.534-1.143.604-1.83.293-1.17-.53-2.356-1.028-3.528-1.557-.297-.134-.538-.13-.828.037-1.687.967-3.458 1.744-5.343 2.228-.533.137-.808.418-.984.935-.365 1.076-.8 2.13-1.208 3.192-.344.893-.821 1.22-1.79 1.221-2.412.003-4.825.003-7.237 0-.96 0-1.413-.295-1.766-1.184a219.6 219.6 0 0 1-1.387-3.598c-.103-.274-.254-.409-.552-.49-1.946-.535-3.796-1.316-5.572-2.267-.353-.189-.637-.198-.993-.032-1.096.516-2.21.993-3.31 1.502-.8.37-1.469.234-2.09-.397-1.736-1.76-3.49-3.503-5.241-5.248-.543-.54-.696-1.152-.382-1.86.538-1.217 1.09-2.427 1.608-3.651.079-.187.094-.483-.002-.647-1.042-1.803-1.843-3.703-2.36-5.72-.083-.328-.231-.507-.576-.628-1.211-.43-2.405-.909-3.599-1.383-.79-.314-1.07-.75-1.071-1.6L0 35.416c0-1.033.55-1.589 1.588-1.59h15.054c.607 0 1.216-.026 1.82.009.386.022.534-.113.622-.483.639-2.699 2.168-4.845 4.274-6.575.72-.593 1.604-.986 2.417-1.465.123-.074.261-.125.437-.207M2.845 36.691c0 .435.016.82-.005 1.203-.018.289.1.405.365.506 1.174.444 2.336.92 3.504 1.38.503.198.839.537.969 1.072a24.887 24.887 0 0 0 2.749 6.749c.33.565.353 1.093.087 1.68-.498 1.104-.96 2.226-1.458 3.33-.109.241-.102.403.086.588a676.892 676.892 0 0 1 3.805 3.794c.186.187.344.208.583.098 1.006-.465 2.036-.88 3.028-1.37.78-.383 1.462-.335 2.212.112 1.951 1.164 4.03 2.052 6.243 2.582.78.187 1.235.62 1.498 1.344.386 1.07.802 2.129 1.186 3.199.093.26.208.38.502.377 1.82-.012 3.64-.01 5.461-.001.267 0 .372-.094.462-.35.393-1.13.822-2.248 1.234-3.37.22-.602.624-.992 1.255-1.138 2.385-.552 4.579-1.564 6.674-2.805.51-.302 1.016-.356 1.563-.112 1.134.505 2.28.982 3.405 1.502.294.136.464.107.684-.117a290.138 290.138 0 0 1 3.671-3.677c.246-.24.26-.43.126-.73-.493-1.106-.953-2.227-1.437-3.338-.243-.558-.219-1.075.102-1.604 1.223-2.011 2.056-4.19 2.662-6.454.215-.802.659-1.277 1.416-1.55 1.07-.384 2.13-.8 3.187-1.217.124-.05.29-.188.298-.296.034-.453.015-.91.015-1.385h-12.76c-1.156 9.068-8.373 13.85-15.238 13.847-3.464-.002-6.644-.968-9.372-3.125-3.456-2.734-5.503-6.31-5.997-10.724H2.845Zm40.488.005H18.495c.427 5.015 4.81 10.924 12.371 11.035 6.702.1 11.965-5.265 12.467-11.035m-21.458-2.91h18.07c-1.086-4.217-5.38-7.089-9.682-6.816-4.138.263-7.399 3.298-8.388 6.816m9.03-17.732c-2.257.002-4.077 1.784-4.076 3.993a4.108 4.108 0 0 0 4.098 4.09c2.184 0 4.04-1.838 4.045-4.004.007-2.315-1.754-4.081-4.066-4.08" fill="#160c4b" fill-rule="evenodd" data-name="Path 63"/><path d="M55.122 0c.48 0 .947.247 1.387.734l9.837 10.885c.242.268.884.977.459 1.943-.445 1.014-1.422 1.014-1.742 1.014-.552-.007-1.056-.01-1.564-.01l-1.746.004v13.748c0 1.67-.535 2.207-2.2 2.207h-9.01c-1.437-.001-2.024-.595-2.024-2.047V14.57l-1.745-.004c-.498 0-.99.003-1.48.01h-.03c-.411 0-1.352-.023-1.79-.959-.47-1.001.219-1.763.446-2.013C45.642 9.7 53.756.718 53.756.718c.43-.476.89-.718 1.366-.718m.007 3.784-6.964 7.71h3.418v15.921h7.115v-15.94h3.376L55.13 3.784Z" fill="#fff" fill-rule="evenodd" data-name="Path 64"/></g><defs><clipPath id="a"><path d="M0 0h66.947v66.175H0V0z" data-name="Rectangle 134"/></clipPath></defs></svg>