<svg xmlns="http://www.w3.org/2000/svg" width="253.952" height="253.854" viewBox="1348 4682.837 63.488 63.463"><g data-name="Group 130"><g data-name="Group 129" transform="translate(1348 4682.836)" clip-path="url(&quot;#a&quot;)"><path d="M5.84 63.464c-1.369 0-2.469-.308-3.36-.94C1.04 61.51.227 60.137.062 58.45a16.63 16.63 0 0 1-.06-1.614C0 39.73 0 22.628 0 5.523c0-2.665 1.975-5 4.593-5.431.473-.078.963-.09 1.422-.09C16.749 0 57.625 0 57.625 0c1.89 0 3.33.601 4.399 1.835.989 1.14 1.467 2.483 1.464 4.106-.014 5.7-.012 11.402-.01 17.105v15.286c-.002 6.423-.003 12.845.008 19.268.003 1.864-.645 3.35-1.982 4.54-.816.728-1.805 1.147-2.94 1.249a20.79 20.79 0 0 1-1.84.068l-50.885.007Zm-2.86-5.675c0 1.61 1.082 2.69 2.69 2.69h51.516c.27 0 .54 0 .811.005h.001c.722 0 1.318-.272 1.813-.808.465-.506.69-1.134.69-1.918l-.002-42.661H2.981v42.692Zm2.546-54.81A2.514 2.514 0 0 0 2.98 5.513v6.57h57.518l.004-2.617c.003-1.345.008-2.689-.016-4.032a2.512 2.512 0 0 0-2.5-2.455H5.527Z" fill="#00cbfa" fill-rule="evenodd" data-name="Path 72"/><path d="M24.4 55.398c-1.246 0-2.196-.217-2.99-.683-1.912-1.12-2.893-2.765-2.917-4.885-.04-3.585-.026-7.235-.012-10.764l.005-1.229c.007-1.732.665-3.156 1.96-4.234.355-.297.792-.542 1.21-.769.471-.255.53-.631.531-.892.002-.299.001-.597 0-.897-.006-.76-.011-1.545.06-2.298.374-3.953 3.232-7.282 7.11-8.285a9.367 9.367 0 0 1 2.352-.299c4.324 0 8.033 2.802 9.229 6.97.234.82.355 1.68.357 2.559.003.764.005 1.529-.002 2.293-.001.144-.004.58.489.822 2.133 1.045 3.183 2.766 3.205 5.261.037 4.012.023 7.984.003 11.679-.015 2.773-1.697 4.877-4.388 5.492a6.81 6.81 0 0 1-1.478.149c-1.222.008-2.445.01-3.666.01l-8.1-.005c-.972 0-2.959.005-2.959.005m14.982-2.973c.738 0 1.41-.254 1.89-.715.488-.468.756-1.124.756-1.849-.002-3.956-.005-7.914-.01-11.87 0-.216-.015-.431-.047-.644-.178-1.184-1.252-2.112-2.443-2.112h-5.848c-3.207 0-6.412.001-9.619.01-.404.002-.85.111-1.225.301-.63.318-1.381 1.001-1.378 2.447l.005 9.508c-.002.768-.004 1.535.003 2.302.013 1.514 1.124 2.613 2.641 2.613h7.098l.524.008H39.381ZM31.776 23.13c-.291 0-.584.02-.869.063-2.604.383-4.43 1.884-5.43 4.461-.378.978-.35 1.967-.323 2.925.01.371.02.744.006 1.114l-.023.55h13.179l-.001-1.186c-.001-.494-.003-.979.002-1.464.01-.837-.174-1.684-.56-2.59-.954-2.244-3.47-3.873-5.981-3.873" fill="#fff" fill-rule="evenodd" data-name="Path 73"/><path d="M31.743 47.332c-.811 0-1.482-.66-1.492-1.47-.006-.46-.004-.919-.003-1.383l.001-1.1-.463-.056c-.585-.071-.963-.251-1.228-.583a1.455 1.455 0 0 1 .869-2.357c.199-.04.387-.059.56-.06.693-.003 1.385-.006 2.078-.006.533 0 1.066.001 1.599.007.701.007 1.157.278 1.433.854.192.402.205.833.038 1.217a1.45 1.45 0 0 1-.927.8c-.12.037-.24.064-.37.094l-.609.148.003 1.036c.002.441.004.874-.005 1.306-.02.898-.643 1.551-1.482 1.553h-.002Z" fill="#00cbfa" fill-rule="evenodd" data-name="Path 77"/></g></g><defs><clipPath id="a"><path d="M0 0h63.488v63.463H0V0z" data-name="Rectangle 137"/></clipPath></defs></svg>