<svg xmlns="http://www.w3.org/2000/svg" width="219.007" height="218.986" viewBox="416.626 1645 73.002 72.995"><g data-name="Group 173"><g data-name="Group 166" transform="translate(416.626 1645)" clip-path="url(&quot;#a&quot;)"><path d="M73.002 38.5c-.186 1.408-.312 2.827-.568 4.223-1.926 10.503-7.353 18.716-16.308 24.52-6.158 3.99-12.977 6.011-20.314 5.726-13.61-.53-24.023-6.68-30.99-18.416C1.4 48.79-.233 42.457.027 35.76.529 22.82 6.215 12.71 17.09 5.633 22.113 2.365 27.687.589 33.668.119c.185-.015.366-.078.55-.119h4.562c1.336.186 2.682.318 4.004.573 1.465.282 2.918.643 4.36 1.032 1.206.326 1.773 1.323 1.441 2.373-.315.998-1.32 1.466-2.498 1.105-3.648-1.116-7.377-1.593-11.182-1.38-8.708.486-16.143 3.839-22.181 10.13-5.282 5.504-8.438 12.117-8.936 19.714-.902 13.759 4.623 24.394 16.478 31.498 6.542 3.92 13.771 5.223 21.279 3.918 12.257-2.13 20.861-9.056 25.558-20.588 2.837-6.967 2.986-14.156.829-21.36-.488-1.63.59-2.721 1.714-2.667.813.04 1.432.493 1.706 1.37A35.734 35.734 0 0 1 72.87 33.6c.024.304.087.604.132.907V38.5Z" fill="#00cbfa" fill-rule="evenodd" data-name="Path 101"/><path d="M36.656 61.984c-12.423-.119-23.054-9.104-25.13-21.361-2.395-14.144 7.348-27.465 21.585-29.441 1.612-.224 3.267-.168 4.903-.181.936-.007 1.64.446 1.958 1.371.426 1.24-.52 2.4-1.895 2.281-4.17-.36-8.073.55-11.745 2.484-7.828 4.123-12.382 12.783-11.396 21.6 1.115 9.97 8.648 17.763 18.615 19.258 11.771 1.765 22.995-6.62 24.63-18.455.205-1.492.168-3.026.148-4.539-.016-1.138.576-2.003 1.637-2.127 1.054-.123 2.01.63 2.004 1.822-.01 2.059.084 4.173-.334 6.166-2.26 10.793-8.812 17.601-19.494 20.344-1.778.457-3.655.528-5.486.778" fill="#00cbfa" fill-rule="evenodd" data-name="Path 102"/><path d="M62.072 7.92c0 .784.033 1.57-.011 2.351-.031.554.18.683.697.672 1.496-.03 2.993.003 4.49-.015.887-.01 1.608.26 1.953 1.127.338.851.046 1.557-.585 2.186a3168.257 3168.257 0 0 0-10.481 10.484c-.522.525-1.114.762-1.846.756-1.805-.015-3.611.013-5.416-.015-.538-.009-.925.142-1.31.531-3.698 3.727-7.417 7.434-11.13 11.146-.117.118-.234.237-.353.353-.918.889-2.004.958-2.77.177-.767-.782-.692-1.853.22-2.767 3.81-3.817 7.619-7.634 11.447-11.433.407-.403.568-.804.558-1.371-.034-1.781-.001-3.563-.018-5.345-.007-.757.236-1.366.781-1.908 3.49-3.466 6.966-6.944 10.433-10.431.648-.65 1.36-.967 2.242-.605.867.356 1.122 1.088 1.102 1.968-.017.713-.003 1.426-.003 2.14m-3.62 2.072c-.151.067-.202.076-.233.106a3119.76 3119.76 0 0 0-6.806 6.802c-.109.11-.222.277-.224.418-.016 1.487-.01 2.975-.01 4.508 1.538 0 2.984.015 4.43-.017.218-.005.47-.196.642-.366 2.142-2.125 4.274-4.261 6.405-6.397.12-.121.214-.269.39-.494-.974 0-1.824.014-2.674-.003-1.183-.022-1.9-.742-1.918-1.921-.014-.85-.003-1.701-.003-2.636" fill="#160c4b" fill-rule="evenodd" data-name="Path 103"/><path d="M36.564 50.918c-7.507-.022-13.787-5.783-14.443-13.25-.658-7.484 4.515-14.274 11.887-15.58a17.01 17.01 0 0 1 2.334-.246c1.213-.045 2.052.69 2.089 1.753.037 1.057-.747 1.845-1.976 1.881-1.542.045-3.009.36-4.41 1.004-4.437 2.04-7.022 6.893-6.203 11.654.85 4.934 4.792 8.625 9.715 9.095 6.294.602 11.677-4.1 11.946-10.45.04-.92.259-1.708 1.189-2.08 1.252-.502 2.501.429 2.474 1.87-.063 3.368-1.142 6.382-3.27 8.997-2.809 3.448-6.897 5.365-11.332 5.352" fill="#00cbfa" fill-rule="evenodd" data-name="Path 104"/></g></g><defs><clipPath id="a"><path d="M0 0h73.002v72.995H0V0z" data-name="Rectangle 175"/></clipPath></defs></svg>