<svg xmlns="http://www.w3.org/2000/svg" width="242.687" height="242.677" viewBox="0 0 60.672 60.669"><g data-name="Group 119" clip-path="url(&quot;#a&quot;)"><path d="M29.672 60.664c-7.958-.144-15.702-3.535-21.248-9.303C2.823 45.537-.166 37.789.007 29.547.348 13.308 13.95.054 30.33 0 38.57.01 46.278 3.25 52.027 9.117c5.73 5.85 8.798 13.586 8.639 21.785-.322 16.692-13.68 29.768-30.412 29.768-.195 0-.386-.002-.582-.006m.696-57.552c-14.814 0-27.042 12.009-27.26 26.77-.107 7.358 2.682 14.302 7.853 19.549 5.164 5.24 12.028 8.127 19.329 8.127 7.355-.02 14.192-2.87 19.328-8.024 5.142-5.16 7.959-12.015 7.931-19.302C57.552 15.51 45.552 3.345 30.8 3.116l-.431-.004Z" fill="#160c4b" fill-rule="evenodd" data-name="Path 58"/><path d="M30.332 49.177c-.849 0-1.55-.696-1.56-1.55-.007-.488-.005-.977-.004-1.469l.002-.953-.551-.176a8.532 8.532 0 0 1-.617-.206c-2.854-1.11-4.648-3.121-5.333-5.98-.151-.628-.19-1.29-.204-1.799-.025-.796.596-1.478 1.415-1.551.048-.004.097-.006.145-.006.766 0 1.388.545 1.513 1.327.028.183.048.367.067.552.036.345.073.703.171 1.052.542 1.915 1.863 3.176 3.819 3.645.395.094.799.142 1.2.142 2.135 0 4-1.305 4.754-3.324a5.162 5.162 0 0 0-.351-4.402 5.133 5.133 0 0 0-3.619-2.49c-.36-.06-.727-.084-1.093-.108-.324-.022-.646-.042-.966-.092-2.755-.428-4.818-1.92-6.134-4.432-1.084-2.072-1.232-4.404-.414-6.567a8.396 8.396 0 0 1 4.848-4.867 6.35 6.35 0 0 1 .835-.266c.515-.118.519-.534.52-.671v-.533c-.001-.544-.003-1.107.056-1.644.085-.761.702-1.295 1.502-1.298.779 0 1.407.536 1.498 1.273.081.653.07 1.341.058 2.006-.007.494.196.77.66.904 3.127.9 5.045 2.956 5.86 6.282.115.462.179.99.197 1.615.011.426-.143.829-.435 1.133a1.49 1.49 0 0 1-1.06.467c-.931 0-1.604-.663-1.625-1.577-.055-2.317-1.432-4.19-3.593-4.888a5.087 5.087 0 0 0-1.562-.248 5.211 5.211 0 0 0-3.596 1.474 5.058 5.058 0 0 0-1.551 3.656 5.137 5.137 0 0 0 4.254 5.076c.34.06.68.076 1.01.092.236.011.474.023.709.05 2.636.315 4.664 1.544 6.026 3.653 1.837 2.843 1.942 5.76.313 8.674-1.099 1.964-2.811 3.273-5.09 3.89l-.43.125-.077.288.002.662c.002.48.003.957-.004 1.435-.012.774-.423 1.342-1.13 1.558a1.484 1.484 0 0 1-.435.066" fill="#fff" fill-rule="evenodd" data-name="Path 59"/></g><defs><clipPath id="a"><path d="M0 0h60.672v60.67H0V0z" data-name="Rectangle 132"/></clipPath></defs></svg>