<svg xmlns="http://www.w3.org/2000/svg" width="307.615" height="253.674" viewBox="788 4682.835 76.904 63.418"><g data-name="Group 128"><g data-name="Group 127" transform="translate(788 4682.836)" clip-path="url(&quot;#a&quot;)"><path d="M7.315 63.416c-1.108 0-2.283-.033-3.367-.44-2.18-.813-3.792-2.992-3.835-5.181l-.003-.208c-.081-4.14-.166-8.413-.062-12.6.137-5.532 3.96-9.759 9.511-10.519.55-.075 1.14-.084 1.65-.087l1.527-.01c.718-.006 1.436-.01 2.154-.01.899 0 1.798.007 2.695.034.914.027 1.866.166 2.785.3l.614.09c.097.014.183.02.26.02.476 0 .846-.229 1.101-.678 1.784-3.145 4.536-5.012 8.18-5.55.505-.075 1.037-.075 1.601-.076 0 0 11.309-.002 12.695-.005 2.377 0 4.428.594 6.27 1.819 1.451.963 2.6 2.203 3.417 3.688.286.52.708.784 1.253.784.102 0 .214-.01.339-.029l.177-.028c1.007-.153 2.033-.31 3.02-.336 1.076-.029 2.152-.04 3.228-.04 1.098 0 2.198.012 3.296.03 4.126.062 7.304 1.787 9.445 5.126 1.098 1.711 1.648 3.726 1.637 5.987-.01 2.06-.009 4.12-.007 6.179v.32c.002 1.478.003 2.957-.001 4.436-.003 1.322-.109 2.71-.85 3.916-1.183 1.923-2.865 2.915-5.14 3.034-.594.031-1.187.035-1.782.035l-15.703.001-46.105-.002ZM11.39 37.3c-.464 0-.948.02-1.478.064-3.813.306-6.938 3.653-6.967 7.459-.023 3.167-.017 6.335-.01 9.502l.004 3.162c.001.664.242 1.29.716 1.863.846 1.019 1.942 1.156 2.902 1.156 3.014-.01 6.005-.011 8.995-.012l5.436-.002.004-3.743c.008-6.03.017-12.06.015-18.09 0-.487-.39-.984-.868-1.107a4.982 4.982 0 0 0-1.177-.183c-2.496-.034-4.99-.054-7.485-.068l-.087-.001Zm51.166-.006c-1.136 0-2.272.005-3.407.012-.465.002-.913.047-1.346.09-.219.023-.439.045-.657.06-.159.012-.64.048-.98.447-.223.264-.319.607-.282 1.022.037.42.036.85.035 1.305l.002 20.167.888.077c.095.01.168.015.241.015l3.63.006c2.317.004 4.633.008 6.949.008l3.224-.003c1.84-.003 3.124-1.311 3.124-3.18l.003-2.276c.003-3.307.007-6.613-.003-9.92-.012-4.379-3.314-7.734-7.68-7.804-1.246-.02-2.493-.026-3.74-.026m-26.821-5.884c-1.371 0-2.743.004-4.115.015-2.952.022-5.224 1.363-6.75 3.984-.845 1.45-.954 2.982-.955 4.153l-.003 7.366c-.002 4.142-.004 8.284-.01 12.425 0 .345.105.625.312.833.311.31.698.31.883.31 7.268-.003 27.853-.004 27.853-.004s.058-1.034.058-1.078l-.005-3.374c-.003-1.892-.006-3.784-.004-5.676v-.97c.002-3.215.004-6.433.027-9.648.014-2.174-.482-3.84-1.563-5.243-1.574-2.042-3.701-3.078-6.323-3.078 0 0-8.02-.015-9.405-.015" fill="#00cbfa" fill-rule="evenodd" data-name="Path 68"/><path d="M38.443 25.608c-7.072-.14-12.676-5.71-12.757-12.68a12.693 12.693 0 0 1 3.694-9.131C31.8 1.347 35.02 0 38.442 0c3.426.001 6.655 1.352 9.092 3.802 2.419 2.433 3.74 5.637 3.723 9.023-.036 7.055-5.664 12.67-12.814 12.783m-.146-22.707c-2.697 0-5.201 1.095-7.053 3.084-1.717 1.844-2.7 4.289-2.7 6.708 0 5.601 4.376 9.99 9.962 9.99 2.618-.002 5.189-1.098 7.054-3.008 1.883-1.93 2.886-4.456 2.823-7.112-.127-5.325-4.516-9.658-9.785-9.658a11.63 11.63 0 0 0-.301-.004" fill="#fff" fill-rule="evenodd" data-name="Path 69"/><path d="M62.358 31.41c-5.142-.027-9.33-4.248-9.334-9.408-.002-2.44.974-4.765 2.75-6.55 1.776-1.784 4.095-2.767 6.532-2.767h.127c5.82.082 9.303 4.84 9.307 9.39.009 2.467-.955 4.797-2.714 6.563-1.756 1.762-4.168 2.773-6.617 2.773h-.05Zm.108-15.832c-3.68 0-6.495 2.763-6.549 6.429a6.35 6.35 0 0 0 1.806 4.553c1.216 1.249 2.868 1.949 4.653 1.971 3.589 0 6.434-2.836 6.48-6.457.046-3.528-2.77-6.443-6.28-6.496h-.11Z" fill="#00cbfa" fill-rule="evenodd" data-name="Path 70"/><path d="M14.556 31.435c-5.25-.11-9.366-4.243-9.372-9.411-.006-5.128 4.038-9.226 9.207-9.331l.199-.003c5.743 0 9.31 4.848 9.32 9.339.011 5.024-4.272 9.332-9.354 9.406m.033-15.857c-3.637 0-6.503 2.823-6.526 6.429-.022 3.626 2.83 6.492 6.491 6.524 3.538 0 6.43-2.913 6.45-6.494.02-3.533-2.833-6.43-6.359-6.46h-.056Z" fill="#00cbfa" fill-rule="evenodd" data-name="Path 71"/></g></g><defs><clipPath id="a"><path d="M0 0h76.903v63.418H0V0z" data-name="Rectangle 136"/></clipPath></defs></svg>