<svg xmlns="http://www.w3.org/2000/svg" width="297.736" height="262.4" viewBox="244 2691 74.434 65.6"><g data-name="Group 104"><g data-name="Group 103" transform="translate(244 2691)" clip-path="url(&quot;#a&quot;)"><path d="M10.306 62.202c-.471 0-.946-.295-1.453-.902C2.383 53.547-.566 44.848.089 35.444c1.1-15.78 8.958-26.772 23.356-32.669C27.942.934 32.647 0 37.43 0c16.138 0 30.255 10.438 35.127 25.974 4 12.757 1.599 24.67-7.136 35.41-.427.525-.879.791-1.345.791-.415 0-.869-.204-1.35-.609-1.438-1.209-7.281-6.137-7.281-6.137-1.147-.967-1.21-1.721-.242-2.883 3.995-4.794 5.872-10.314 5.579-16.407-.071-1.49-.374-2.978-.667-4.418-.082-.408-.165-.816-.243-1.223-.111-.583-.011-1.115.282-1.495.272-.354.693-.56 1.215-.597l.142-.005c.749 0 1.239.443 1.496 1.354 1.637 5.804 1.415 11.455-.661 16.798-.635 1.633-1.451 3.181-2.316 4.819-.397.754-.8 1.516-1.191 2.3l-.14.283 5.057 4.256.257-.316c6.29-7.73 10.026-21.374 4.193-34.428-5.2-11.638-16.555-19.504-28.928-20.039l-.379-.016-.061.595a4.448 4.448 0 0 0-.045.553c-.002.541 0 1.082.001 1.623.003 1 .006 2.001-.016 3.001-.018.855.318 1.238 1.16 1.324 5.21.53 9.938 2.458 14.052 5.734.542.431.819 1.004.76 1.571-.055.526-.402.987-.953 1.263a1.453 1.453 0 0 1-.659.169c-.379.001-.775-.175-1.244-.55a23.546 23.546 0 0 0-6.469-3.65 23.372 23.372 0 0 0-8.229-1.499c-11.741 0-21.817 8.714-23.436 20.269-.968 6.911.82 13.181 5.315 18.637 1.073 1.302 1.013 1.993-.268 3.079l-.783.664c-2.115 1.794-4.23 3.587-6.354 5.369-.513.429-.959.638-1.364.638M3.314 39.34c.488 7.003 2.772 13.094 6.983 18.622l.256.335 5.117-4.344-.141-.281a98.089 98.089 0 0 0-1.151-2.198c-.87-1.629-1.692-3.168-2.307-4.803-.616-1.637-1.009-3.328-1.426-5.118a95.803 95.803 0 0 0-.565-2.341l-.078-.3H3.284l.03.428Zm8.422-24.547C6.597 20.757 3.848 27.429 3.334 35.19l-.028.426 2.992.004c1.1 0 2.173-.007 3.246-.036.465-.013.86-.69.897-1.052.489-4.765 2.172-9.167 5.002-13.086.298-.412.61-.813.912-1.201l.624-.807-4.961-4.972-.282.327Zm23.39-11.436c-7.741.58-14.575 3.398-20.314 8.377l-.325.281 4.948 4.949s.769-.572 1.023-.764c.557-.422 1.14-.864 1.746-1.272 3.675-2.477 7.818-3.976 12.31-4.456.391-.042 1-.47 1.012-.919.038-1.465.035-2.931.032-4.462l-.002-1.766-.43.032Z" fill="#00cbfa" fill-rule="evenodd" data-name="Path 25"/><path d="M37.728 49.031c-3.308-.003-5.841-1.579-6.776-4.215-.933-2.627-.094-5.533 2.041-7.067 4.808-3.457 9.677-6.827 15.088-10.558 2.231-1.539 4.485-3.045 6.739-4.552 1.205-.806 2.41-1.611 3.613-2.422.388-.262.739-.389 1.074-.389.263 0 .517.079.777.24.633.393.897.925.782 1.582a2.176 2.176 0 0 1-.416.914 14563.455 14563.455 0 0 1-18.483 23.801c-1.268 1.631-2.969 2.653-4.439 2.666m12.064-19.078-.149.084c-.122.068-.245.136-.36.215l-2.5 1.707c-2.312 1.579-4.624 3.157-6.922 4.757-1.521 1.058-3.282 2.298-4.943 3.623-.701.559-1.111 1.324-1.153 2.153-.045.876.315 1.734 1.012 2.418.624.611 1.402.948 2.192.948.919 0 1.786-.444 2.444-1.249 2.07-2.539 4.131-5.155 6.123-7.684l.833-1.057c.943-1.195 1.87-2.402 2.798-3.608l1.439-1.869-.434-.495-.38.057Z" fill="#160c4b" fill-rule="evenodd" data-name="Path 26"/><path d="M20.671 65.598c-1.746 0-1.984-.872-2.013-1.527-.021-.51.116-.937.396-1.234.268-.284.662-.438 1.139-.445.925-.013 1.85-.017 2.774-.017l30.93.008c1.054.002 1.633.408 1.77 1.245.09.551-.009 1.026-.288 1.376-.279.351-.724.555-1.286.591a3.285 3.285 0 0 1-.199.005l-33.223-.002Z" fill="#00cbfa" fill-rule="evenodd" data-name="Path 27"/></g></g><defs><clipPath id="a"><path d="M0 0h74.434v65.6H0V0z" data-name="Rectangle 125"/></clipPath></defs></svg>