<svg xmlns="http://www.w3.org/2000/svg" width="249.929" height="222.229" viewBox="839.62 4255 62.482 55.557"><g data-name="Group 137"><g data-name="Group 138"><path d="M886.479 4281.89c.503.466.982.89 1.435 1.339.185.184.327.201.56.086 1.381-.684 2.782-.728 4.163-.017.41.212.8.503 1.127.83 2.298 2.287 4.576 4.593 6.862 6.892.962.966 1.535 2.113 1.471 3.49-.089 1.903-1.025 3.305-2.766 4.068-1.726.756-3.421.564-4.818-.72-1.595-1.467-3.075-3.06-4.606-4.596-.868-.872-1.739-1.739-2.607-2.609-.91-.911-1.413-2.002-1.387-3.3.015-.73.215-1.422.55-2.077.05-.097.053-.296-.011-.362-.486-.499-.993-.977-1.507-1.474-4.01 3.236-8.542 4.667-13.691 3.64-4.216-.843-7.585-3.03-10.116-6.544-4.6-6.385-3.864-15.48 2.08-21.07 6.048-5.683 14.937-5.865 21.102-.988 3.592 2.841 5.7 6.599 6.126 11.185.425 4.572-.902 8.634-3.967 12.228m1.742-10.834c.028-7.392-6.245-13.9-14.16-13.742-7.702.153-13.937 6.786-13.628 14.458.292 7.257 6.476 13.423 14.021 13.326 7.204-.093 13.778-5.761 13.767-14.042m9.147 25.603c.894.013 1.635-.39 2.061-1.07.585-.933.461-2.08-.39-2.941-2.252-2.28-4.524-4.54-6.794-6.803a2.873 2.873 0 0 0-.6-.46c-.993-.567-2.28-.28-2.972.647-.71.95-.572 2.289.317 3.154.707.689 1.413 1.38 2.113 2.076 1.571 1.565 3.138 3.134 4.707 4.7.455.454.99.718 1.558.697" fill="#fff" fill-rule="evenodd" data-name="Path 80"/><path d="m858.14 4297.834-.001 11.174c0 1.079-.463 1.546-1.535 1.547-1.29.001-2.579.002-3.868 0-1.075-.002-1.54-.47-1.54-1.546v-22.346c0-1.105.456-1.566 1.555-1.568 1.301-.002 2.603-.003 3.905 0 .997.002 1.482.492 1.483 1.494v11.245m-2.34-10.394h-2.27v20.782h2.27v-20.782Z" fill="#160c4b" fill-rule="evenodd" data-name="Path 82"/><path d="M839.625 4290.65c0-5.99.005-11.981-.005-17.973-.003-1.087.279-2.036 1.072-2.81.77-.754 1.727-.964 2.754-.972 1.144-.008 2.29-.001 3.434-.001 2.471 0 4.942-.003 7.413.003.226 0 .459.024.676.083.478.127.834.603.833 1.067a1.147 1.147 0 0 1-.862 1.08c-.219.053-.451.078-.677.079-3.677.004-7.353.003-11.029.004-.893 0-1.294.403-1.294 1.301 0 12.151 0 24.302-.003 36.453 0 .239-.018.483-.075.714-.123.5-.614.863-1.12.867-.492.003-.925-.348-1.05-.88a2.824 2.824 0 0 1-.064-.644c-.004-6.123-.003-12.247-.003-18.37" fill="#160c4b" fill-rule="evenodd" data-name="Path 83"/><path d="M860.452 4300.176v-8.895c0-1.098.46-1.555 1.566-1.557 1.29-.002 2.579-.002 3.868 0 1.027.002 1.508.482 1.51 1.504v17.826c0 1.024-.48 1.5-1.51 1.5-1.302.003-2.603.003-3.905 0-1.054 0-1.529-.474-1.53-1.519v-8.859m4.603-8.12h-2.268v16.167h2.268v-16.166Z" fill="#160c4b" fill-rule="evenodd" data-name="Path 84"/><path d="M869.708 4302.454v-6.544c0-1.084.46-1.555 1.53-1.557 1.314-.003 2.628-.003 3.941 0 .978.003 1.471.495 1.472 1.468.002 4.423.002 8.846 0 13.27 0 .974-.49 1.46-1.473 1.464-1.326.003-2.651.003-3.977 0-1.021-.004-1.493-.487-1.493-1.52v-6.581m4.603-5.756h-2.269v11.525h2.27v-11.525Z" fill="#160c4b" fill-rule="evenodd" data-name="Path 85"/><path d="M885.908 4304.805v4.266c-.001 1-.484 1.482-1.49 1.484-1.314.003-2.627.003-3.94 0-1.045-.002-1.513-.48-1.513-1.536v-8.497c0-1.072.467-1.538 1.546-1.54 1.302-.002 2.603-.003 3.904 0 1.004.002 1.491.488 1.493 1.484.002 1.447 0 2.893 0 4.339m-2.34-3.48h-2.27v6.897h2.27v-6.896Z" fill="#160c4b" fill-rule="evenodd" data-name="Path 86"/><path d="M899.793 4278.098v5.565c0 .451-.1.86-.477 1.156-.647.512-1.536.238-1.76-.555a2.562 2.562 0 0 1-.076-.677c-.004-3.602-.002-7.204-.006-10.806 0-.227-.023-.456-.057-.68a1.01 1.01 0 0 0-1.013-.89c-.71-.008-1.423.029-2.131-.016a2.152 2.152 0 0 1-.971-.302.949.949 0 0 1-.434-1.037c.095-.445.383-.81.827-.864 1.352-.164 2.736-.306 4.027.225 1.487.612 2.057 1.879 2.068 3.423.012 1.82.003 3.638.003 5.458" fill="#160c4b" fill-rule="evenodd" data-name="Path 87"/><path d="M897.477 4305.963c0-1.06-.004-2.121.004-3.182.002-.214.029-.435.086-.641.128-.458.583-.8 1.043-.814.456-.013.93.314 1.077.768.06.18.1.376.101.565.007 2.182.007 4.363.002 6.544 0 .44-.135.83-.509 1.105-.636.467-1.49.195-1.72-.559a2.18 2.18 0 0 1-.08-.605c-.008-1.06-.004-2.12-.004-3.181" fill="#160c4b" fill-rule="evenodd" data-name="Path 88"/></g></g></svg>