<svg xmlns="http://www.w3.org/2000/svg" width="354.366" height="335.051" viewBox="229 2910 88.592 83.763"><g data-name="Group 15"><g data-name="Group 14" transform="translate(229 2910)" clip-path="url(&quot;#a&quot;)"><path d="M88.578 61.997c-.738-2.46-2.53-3.815-5.178-3.917-1.121-.043-2.347.089-3.645.393-3.345.784-6.739 1.608-10.021 2.405-2.24.543-4.48 1.087-6.723 1.623-.176.043-.458-.008-.703-.125-.337-.162-.676-.358-1.003-.547-.583-.338-1.186-.687-1.844-.886-4.72-1.424-9.53-2.838-14.182-4.205-2.393-.703-4.785-1.406-7.177-2.113-4.278-1.266-8.236-1.463-12.101-.603-1.435.319-2.87.633-4.335.953l-1.63.357-.001-.671c-.009-2.545-1.366-3.891-3.925-3.892-1.194 0-2.379.004-3.568.01-2.74.01-5.571.022-8.353-.034-2.135-.042-3.47.796-4.168 2.642L0 53.442v26.743l.02.055c.697 1.844 2.052 2.675 4.267 2.637 2.758-.057 5.567-.046 8.283-.034 1.215.004 2.43.008 3.645.008 2.415-.001 3.806-1.4 3.817-3.837.002-.425.002-.85.001-1.304v-.248l2.002.58c1.841.531 3.654 1.055 5.465 1.582 1.36.395 2.72.793 4.08 1.19 2.26.662 4.521 1.322 6.784 1.974 2.255.65 4.49.975 6.727.975 3.44 0 6.88-.77 10.391-2.316 8.384-3.69 17.23-7.523 27.84-12.063 2.915-1.247 4.586-2.992 5.259-5.493l.01-1.801-.013-.093Zm-68.54.973a2456.66 2456.66 0 0 1-.004-3.443v-.721c1.151-.218 2.294-.49 3.403-.754 2.64-.63 5.136-1.22 7.794-1.171 2.518.05 4.87.687 7.465 1.45l3.914 1.152c5.246 1.543 10.492 3.087 15.735 4.64.403.12.995.316 1.484.63.62.399.963.989.94 1.618-.022.644-.417 1.222-1.082 1.587-.716.392-1.548.467-2.618.236L44.25 65.42l-8.665-1.874a11.28 11.28 0 0 0-.659-.13c-.974-.152-1.774.356-1.991 1.265a1.66 1.66 0 0 0 .181 1.258c.228.374.61.642 1.077.753 1.365.326 2.76.625 4.108.913l1.005.216c1.535.33 3.07.663 4.604.996 4.232.918 8.608 1.867 12.92 2.757 2.27.467 4.285-.111 5.828-1.673 1.041-1.053 1.545-2.334 1.497-3.805-.011-.348.008-.377.292-.445 2.09-.5 4.178-1.007 6.266-1.515 3.407-.828 6.93-1.684 10.402-2.493.79-.184 1.747-.21 2.768-.075.545.073.946.304 1.158.672.23.395.225.93-.011 1.503-.405.983-1.166 1.687-2.395 2.218-3.434 1.482-6.865 2.972-10.296 4.462l-4.648 2.018c-1.4.607-2.802 1.207-4.204 1.808-3.039 1.302-6.181 2.648-9.243 4.04-5.173 2.35-10.374 2.674-15.9.99-5.142-1.57-10.398-3.068-15.48-4.517l-2.136-.609c-.594-.17-.721-.341-.715-.97.034-3.405.03-6.866.025-10.213m-3.38 15.9c0 .267-.035.437-.106.508-.07.07-.24.102-.505.103a869.944 869.944 0 0 0-12.109-.001c-.247.003-.403-.03-.466-.093-.064-.064-.095-.223-.094-.472.02-3.024.017-6.098.015-9.071l-.002-3.035c0-1.038.001-2.076.003-3.113.003-2.92.006-5.939-.019-8.909-.002-.291.033-.47.107-.543.074-.074.253-.105.54-.107 3.79.031 7.724.033 12.025.002.256-.001.436.032.506.103.07.07.106.24.105.504-.02 7.951-.02 16.068 0 24.125" fill="#79c262" fill-rule="evenodd" data-name="Path 15"/><path d="M55.68 35.893c-.014 3.607 1.39 7.013 3.955 9.592 2.559 2.573 5.948 3.994 9.545 4h.025c7.457 0 13.536-6.045 13.558-13.487.022-7.477-6.025-13.578-13.48-13.6h-.04c-7.455 0-13.536 6.046-13.564 13.495m13.529-10.09h.043c2.77 0 5.34 1.083 7.236 3.052 4.353 4.518 3.175 10.606.653 13.358-.112-.161-.222-.323-.332-.485-.421-.62-.857-1.26-1.38-1.82-.526-.562-1.14-1.044-1.733-1.51a43.692 43.692 0 0 1-.544-.43c1.936-2.894 1.773-5.558-.469-7.523-2.004-1.756-5.019-1.715-7.013.095-2.151 1.953-2.258 4.667-.312 7.485-1.692.963-3.034 2.38-3.997 4.222-3.867-4.128-2.19-10.425.54-13.305 1.907-2.013 4.503-3.128 7.308-3.14m-1.317 7.316a1.9 1.9 0 0 1 1.336-.572h.013a1.895 1.895 0 0 1 1.871 1.858 1.883 1.883 0 0 1-1.817 1.9 1.89 1.89 0 0 1-1.37-.528 1.86 1.86 0 0 1-.586-1.321 1.872 1.872 0 0 1 .553-1.337m1.32 7.283h.02c2.218 0 4.45 1.836 5.175 4.225-2.79 1.96-7.415 1.96-10.347 0 .732-2.375 2.954-4.214 5.152-4.225" fill="#160c4b" fill-rule="evenodd" data-name="Path 16"/><path d="M52.608 27.073h.008a13.42 13.42 0 0 0 9.55-3.962 13.45 13.45 0 0 0 3.968-9.58C66.131 6.069 60.066 0 52.615 0h-.002C45.151.001 39.075 6.069 39.07 13.526c-.002 3.605 1.407 7.002 3.97 9.567a13.456 13.456 0 0 0 9.57 3.98m-.158-23.68c2.822-.045 5.456 1.03 7.402 3.035 2.477 2.554 2.94 5.39 2.893 7.32-.057 2.333-.917 4.613-2.269 6.067-1.013-1.883-2.324-3.263-3.991-4.201C58.424 12.74 58.29 10 56.1 8.059c-2.007-1.78-5.116-1.74-7.077.09-2.104 1.965-2.22 4.716-.33 7.404-.175.138-.35.275-.527.412-.59.458-1.2.931-1.721 1.487-.528.561-.967 1.204-1.392 1.825l-.345.5c-1.267-1.298-2.114-3.438-2.234-5.687a10.114 10.114 0 0 1 2.622-7.371 10.185 10.185 0 0 1 7.354-3.326m2.025 8.622a1.863 1.863 0 0 1-1.85 1.885 1.807 1.807 0 0 1-1.33-.548 1.896 1.896 0 0 1-.552-1.38 1.85 1.85 0 0 1 1.888-1.834 1.851 1.851 0 0 1 1.844 1.877m-2.084 6.004c2.37-.086 4.508 1.594 5.402 4.195-3.068 1.956-7.605 1.953-10.346-.009.648-2.254 2.822-4.112 4.944-4.186" fill="#160c4b" fill-rule="evenodd" data-name="Path 17"/><path d="M35.974 49.485h.018c7.448 0 13.526-6.061 13.55-13.52.012-3.591-1.393-6.987-3.956-9.561-2.569-2.58-5.969-4.002-9.573-4.006H36c-7.452 0-13.52 6.066-13.53 13.528-.008 7.467 6.05 13.55 13.504 13.559m-1.3-16.39a1.838 1.838 0 0 1 1.315-.55h.017a1.889 1.889 0 0 1 1.861 1.88 1.877 1.877 0 0 1-1.852 1.879 1.854 1.854 0 0 1-1.89-1.833 1.89 1.89 0 0 1 .549-1.377m1.316 7.307h.037c2.2.02 4.375 1.817 5.138 4.213-2.64 1.962-7.527 1.963-10.352.004.83-2.463 2.97-4.217 5.177-4.217m3.868-2.381c1.925-2.664 1.827-5.498-.287-7.462-1.997-1.854-5.136-1.855-7.146 0-2.145 1.976-2.247 4.811-.3 7.465-1.686.963-3.028 2.378-3.998 4.216-3.603-3.682-2.392-9.908.153-12.879a10.135 10.135 0 0 1 7.071-3.546c2.707-.183 5.301.702 7.302 2.487 2.081 1.858 3.347 4.506 3.472 7.267.114 2.495-.683 4.86-2.25 6.71-.991-1.889-2.31-3.287-4.017-4.258" fill="#160c4b" fill-rule="evenodd" data-name="Path 18"/></g></g><defs><clipPath id="a"><path d="M0 0h88.592v83.763H0V0z" data-name="Rectangle 41"/></clipPath></defs></svg>