<svg xmlns="http://www.w3.org/2000/svg" width="240.471" height="287.888" viewBox="777.999 2688 60.118 71.972"><g data-name="Group 106"><g data-name="Group 105" transform="translate(778 2688)" clip-path="url(&quot;#a&quot;)"><path d="M29.96 71.972c-.211 0-.402-.028-.553-.079-5.903-2.033-10.768-4.635-14.873-7.953C8.68 59.208 4.572 52.962 2.323 45.373.94 40.705.182 35.797.072 30.787c-.101-4.542-.075-9.168-.05-13.641.009-1.541.017-3.069.021-4.597.005-1.45 1.1-1.814 2.019-1.864.546-.03 1.093-.054 1.639-.077 1.3-.057 2.621-.115 3.923-.252 7.802-.825 14.617-3.852 20.254-8.999.399-.365.856-.682 1.34-1.018.163-.113.324-.225.483-.339h.633c.154.109.31.218.467.326.469.323.912.629 1.3.984 5.418 4.956 11.862 7.947 19.152 8.888 1.97.255 3.978.351 5.919.445l.518.025c1.735.085 2.296.648 2.31 2.317.013 1.469.032 2.938.052 4.407.043 3.255.086 6.621.054 9.957-.063 6.383-.746 11.924-2.089 16.94-2.954 11.037-9.716 19.283-20.098 24.509-2.106 1.061-4.365 1.946-6.55 2.801l-.576.225a2.391 2.391 0 0 1-.833.148m.053-67.26c-.537 0-.957.297-1.264.556-5.046 4.26-10.911 6.994-17.431 8.127-1.562.271-3.109.451-4.746.641-.777.091-1.522.177-2.274.274l-.66.085-.051.882a9.313 9.313 0 0 0-.025.516L3.526 18.4a618.578 618.578 0 0 0-.074 6.673c-.029 6.903.474 12.175 1.63 17.095 1.707 7.266 5.005 13.043 10.084 17.66 3.801 3.456 8.466 6.173 14.261 8.306.174.064.368.096.577.096.288 0 .594-.065.841-.18.745-.346 1.496-.682 2.247-1.017 1.899-.846 3.861-1.722 5.705-2.778 5.852-3.355 10.301-8.019 13.223-13.862 2.605-5.212 4.024-11.194 4.337-18.288.169-3.813.147-7.689.125-11.438-.011-1.687-.02-3.334-.015-4.978a4.508 4.508 0 0 0-.035-.519l-.076-.833-2.395-.261a119.272 119.272 0 0 1-3.688-.428c-7.143-.978-13.526-3.791-18.972-8.361-.34-.284-.758-.575-1.288-.575" fill="#00cbfa" fill-rule="evenodd" data-name="Path 28"/><path d="M26.454 44.944c-.482 0-1.016-.3-1.633-.917l-2.277-2.277a1233.227 1233.227 0 0 0-4.285-4.273c-.636-.63-.83-1.231-.628-1.947.218-.775.863-1.276 1.643-1.276.482 0 .957.202 1.339.567a203.33 203.33 0 0 1 3.68 3.657l.987.996c.077.078.137.174.205.278.084.128.146.223.217.322l.547.77 4.237-4.236c2.94-2.94 5.817-5.817 8.691-8.7.631-.632 1.032-.767 1.44-.776.796 0 1.303.283 1.637.915.359.676.31 1.287-.153 1.92-.127.175-.285.33-.439.484-4.562 4.566-9.067 9.072-13.573 13.576-.618.617-1.153.917-1.635.917" fill="#160c4b" fill-rule="evenodd" data-name="Path 29"/></g></g><defs><clipPath id="a"><path d="M0 0h60.118v71.973H0V0z" data-name="Rectangle 126"/></clipPath></defs></svg>