<svg xmlns="http://www.w3.org/2000/svg" width="331.774" height="329.688" viewBox="2519 2702.245 82.944 82.422"><g data-name="Group 163"><g data-name="Group 136" transform="translate(2519 2702.246)" clip-path="url(&quot;#a&quot;)"><path d="M46.202 48.427c.148-.145.415-.265.61-.247 2.828.272 5.459-.39 7.908-1.74 3.691-2.033 5.862-5.207 6.79-9.295.557-2.455.3-4.832-.461-7.192-.444-1.376-1.904-1.75-2.932-.73-2.014 2.003-4.017 4.017-6.025 6.027-.41.411-.403.406-.82-.01-1.37-1.367-2.742-2.73-4.118-4.091-.412-.41-.416-.404-.02-.8 2.021-2.014 4.044-4.028 6.063-6.046 1.04-1.038.702-2.477-.693-2.927-4.099-1.317-8.066-.983-11.706 1.317-4.247 2.685-6.471 6.624-6.59 11.691-.01.402.071.807.056 1.209-.008.212-.074.48-.214.624-1.158 1.185-14.965 14.907-18.498 18.423a.866.866 0 0 1-.527.236c-1.04.04-2.099-.06-3.122.088-4.285.617-7.607 2.787-9.888 6.465C.338 64.134-.3 67.106.13 70.268c.131.972.366 1.941.668 2.875.351 1.077 1.338 1.482 2.293 1.013a3.27 3.27 0 0 0 .829-.618c1.987-1.97 3.964-3.952 5.944-5.93.075-.074.157-.142.211-.191l4.921 4.908c-.087.093-.16.174-.238.252-1.948 1.95-3.9 3.897-5.844 5.853a4.958 4.958 0 0 0-.662.802c-.332.515-.298 1.048.01 1.575.303.516.786.764 1.327.943 2.216.732 4.468.86 6.754.41 3.69-.725 6.682-2.56 8.813-5.676 1.863-2.724 2.632-5.763 2.395-9.06a.842.842 0 0 1 .215-.58c2.85-2.864 17.163-17.176 18.437-18.417m-21.259 16.41c-.743.721-.976 1.486-.868 2.501.71 6.664-4.055 11.014-9.086 11.573-.561.063-1.129.073-1.694.107l-.054-.132c.434-.43.867-.856 1.3-1.287l3.698-3.686c.118-.118.236-.235.348-.359.758-.837.763-1.696-.019-2.52-.766-.809-1.552-1.598-2.337-2.388a2287.49 2287.49 0 0 0-4.72-4.729c-.892-.89-1.882-.9-2.783-.004-1.621 1.608-3.228 3.23-4.842 4.845-.133.131-.279.251-.455.41-.102-2.119.388-4.018 1.419-5.79 1.743-3 4.374-4.632 7.783-5.02a11.014 11.014 0 0 1 2.572.037c.902.11 1.589-.133 2.22-.765 3.865-3.87 7.748-7.724 11.622-11.587 2.642-2.634 5.274-5.279 7.917-7.912.609-.607.886-1.265.765-2.17-.535-4.006.834-7.293 3.979-9.79 1.805-1.433 3.92-2.127 6.242-2.123.125 0 .25.008.375.02.038.003.075.026.163.06-.116.127-.212.238-.316.342a8338.886 8338.886 0 0 1-4.823 4.805c-.974.969-.988 1.934-.02 2.906 2.28 2.289 4.565 4.572 6.848 6.856.503.503 1.072.912 1.813.667a3.01 3.01 0 0 0 1.111-.688c1.565-1.526 3.096-3.086 4.641-4.632.171-.17.358-.326.589-.537.031.167.058.243.058.32-.063 5.656-3.677 9.432-8.43 10.41-1.057.218-2.198.218-3.276.1-1.024-.11-1.751.16-2.457.872-4.234 4.272-8.492 8.519-12.745 12.772-2.174 2.177-4.33 4.373-6.538 6.516" fill="#00cbfa" fill-rule="evenodd" data-name="Path 78"/><path d="M13.809 34.568c0-1.517-.001-3.036.001-4.553 0-.236.006-.474.025-.71.065-.79.476-1.32 1.227-1.57 1.305-.438 2.599-.91 3.92-1.284.868-.246 1.424-.603 1.71-1.567.37-1.256 1.007-2.436 1.556-3.635.139-.305.173-.53.01-.846a196.264 196.264 0 0 1-2.19-4.406c-.488-1.005-.402-1.547.379-2.333 2.355-2.371 4.718-4.733 7.086-7.092.694-.691 1.313-.798 2.196-.361 1.508.746 3.006 1.511 4.5 2.284.249.13.437.12.694.01a179.071 179.071 0 0 1 4.35-1.797c.335-.132.542-.286.659-.653a237.25 237.25 0 0 1 1.593-4.784c.29-.847.827-1.257 1.712-1.26 3.37-.014 6.74-.017 10.109-.002 1.016.004 1.55.4 1.89 1.395.498 1.46.976 2.927 1.423 4.402.152.502.416.74.92.926 1.418.52 2.805 1.128 4.192 1.73.26.113.456.122.7-.001a829.12 829.12 0 0 1 4.32-2.174c1.106-.555 1.67-.47 2.539.399 2.342 2.344 4.68 4.694 7.019 7.04.608.61.773 1.289.374 2.083-.774 1.541-1.528 3.09-2.308 4.627-.122.239-.12.423-.018.66.637 1.51 1.25 3.029 1.895 4.534.08.188.273.393.46.46 1.48.521 2.973 1.007 4.46 1.513.287.099.58.205.84.357.529.308.823.785.845 1.402.023.598.026 1.197.028 1.796.008 2.785.012 5.57.018 8.355.003.944-.395 1.558-1.3 1.872a271.98 271.98 0 0 1-4.782 1.6c-.309.1-.454.275-.575.578a175.148 175.148 0 0 1-1.845 4.42c-.11.252-.138.444-.012.694.753 1.488 1.502 2.979 2.234 4.476.494 1.012.412 1.57-.384 2.373a1182.746 1182.746 0 0 1-7.03 7.032c-.74.734-1.335.8-2.268.335-1.53-.762-3.058-1.528-4.595-2.275a.641.641 0 0 0-.495-.008c-1.487.725-2.974 1.447-4.577 1.89-.284.079-.428.252-.519.533a451.535 451.535 0 0 1-1.551 4.668c-.343 1.019-.874 1.414-1.951 1.418-3.342.01-6.684.01-10.026.014-.833 0-1.44-.396-1.703-1.167a286.4 286.4 0 0 1-2.06-6.298c-.205-.646-.057-1.255.474-1.705.527-.446 1.139-.56 1.796-.312.557.21.833.664 1.014 1.198.495 1.46 1.007 2.913 1.484 4.38.113.346.256.479.636.475a440.87 440.87 0 0 1 6.975-.008c.351.003.483-.125.582-.432.44-1.362.921-2.71 1.348-4.075.287-.92.855-1.46 1.792-1.726a24.675 24.675 0 0 0 5.446-2.286c.657-.37 1.302-.432 1.985-.087 1.414.715 2.836 1.414 4.243 2.142.24.124.377.128.57-.065 1.707-1.72 3.419-3.435 5.14-5.137.219-.217.143-.379.039-.588-.683-1.367-1.347-2.745-2.048-4.103-.38-.736-.355-1.409.048-2.134a26.128 26.128 0 0 0 2.252-5.507c.234-.82.716-1.338 1.537-1.6 1.456-.465 2.895-.98 4.344-1.462.264-.088.367-.211.364-.505-.017-2.368-.02-4.735-.01-7.102.002-.303-.08-.436-.376-.53-1.492-.485-2.974-1.004-4.465-1.494-.694-.227-1.131-.67-1.33-1.372a28.394 28.394 0 0 0-2.326-5.7c-.405-.759-.409-1.448-.005-2.212.72-1.363 1.387-2.756 2.06-4.144.048-.097.02-.304-.054-.379-1.725-1.74-3.464-3.466-5.194-5.202-.184-.185-.34-.161-.548-.056-1.328.671-2.674 1.31-3.988 2.003-.789.415-1.497.404-2.285-.031-1.755-.967-3.585-1.779-5.533-2.286-.863-.225-1.371-.751-1.629-1.608-.427-1.423-.92-2.827-1.373-4.242-.075-.236-.186-.327-.441-.325-2.437.009-4.874.009-7.31-.002-.263-.001-.36.101-.434.333-.437 1.376-.914 2.741-1.328 4.126-.282.943-.84 1.505-1.808 1.753-1.854.477-3.584 1.281-5.25 2.21-.837.468-1.583.49-2.434.034-1.31-.701-2.67-1.31-4-1.976-.243-.122-.39-.092-.574.096a772.126 772.126 0 0 1-5.078 5.085c-.206.205-.166.372-.06.589.646 1.308 1.25 2.639 1.94 3.924.455.848.442 1.601-.029 2.434a24.528 24.528 0 0 0-2.249 5.46c-.214.77-.668 1.258-1.413 1.506-1.489.495-2.973 1.005-4.467 1.487-.236.076-.307.18-.307.407.008 2.437.013 4.874.005 7.31 0 .27.157.32.346.384 1.514.509 3.032 1.01 4.541 1.533.665.229 1.088.69 1.236 1.4.218 1.044-.854 2.193-1.895 1.946-.78-.184-1.53-.494-2.295-.749-1.331-.444-2.667-.876-3.992-1.335-.975-.338-1.352-.874-1.359-1.908-.009-1.643-.002-3.287-.002-4.93h-.003Z" fill="#160c4b" fill-rule="evenodd" data-name="Path 79"/></g></g><defs><clipPath id="a"><path d="M0 0h82.943v82.42H0V0z" data-name="Rectangle 139"/></clipPath></defs></svg>