<svg xmlns="http://www.w3.org/2000/svg" width="239.054" height="238.942" viewBox="203.119 3872.132 59.764 59.736"><g data-name="Group 140"><g data-name="Group 139" transform="translate(203.119 3872.132)" clip-path="url(&quot;#a&quot;)"><path d="M.005 16.302c.754 0 1.48-.005 2.206.001.516.005.513.011.513.545-.001 7.896-.004 15.79-.001 23.686 0 1.397.658 2.39 1.844 2.767.292.093.61.132.916.138.836.02 1.673.009 2.509.008.047 0 .094-.014.151-.02-.021-5.494 2.434-9.52 7.196-12.221-1.419-1.696-1.972-3.674-1.648-5.875.272-1.85 1.216-3.336 2.618-4.545 2.692-2.32 6.676-2.353 9.345-.167 1.592 1.303 2.61 2.98 2.811 5.063.2 2.06-.334 3.924-1.65 5.523 3.676 1.99 5.991 4.976 6.861 9.057.208.972.31 1.958.264 2.953-.01.218.089.233.261.233 4.425-.005 8.85-.005 13.274-.005 2.189 0 4.377-.004 6.565.007.927.005 1.75-.217 2.37-.957a2.58 2.58 0 0 0 .612-1.512c.01-.164.014-.33.014-.495l-.001-26.488v-.44H.005v-.386L.006 5.56c0-2.613 1.677-4.775 4.221-5.39C4.75.042 5.306.007 5.845.007 21.911 0 37.976 0 54.042.004c1.862 0 3.44.634 4.59 2.163.809 1.077 1.13 2.301 1.13 3.631-.005 6.244-.002 12.486-.002 18.729 0 5.309-.006 10.617.003 15.926.003 1.601-.472 3.007-1.627 4.137-.997.975-2.196 1.548-3.602 1.557-3.49.026-6.98.018-10.471.02-12.73.002-25.458-.004-38.187.012-1.555 0-2.935-.392-4.096-1.447C.739 43.787.188 42.595.064 41.204a16.814 16.814 0 0 1-.056-1.514C.004 32.038.005 24.386.005 16.733v-.431Zm57.004-5.438c.019-.083.035-.12.035-.156-.005-1.838-.01-3.676-.018-5.513-.003-.613-.25-1.132-.648-1.582-.622-.703-1.429-.896-2.337-.896-15.88.007-31.76.006-47.64.006-.32 0-.641-.007-.961.003-1.694.057-2.761 1.2-2.743 2.898.017 1.671.011 3.344.005 5.017 0 .19.065.232.236.228.37-.01.739-.005 1.109-.005H57.009M31.212 43.418c.01-.11.019-.194.024-.28.077-1.43-.183-2.795-.708-4.127-1.08-2.741-3.015-4.612-5.714-5.73a.988.988 0 0 0-.832-.003c-1.997.856-3.996.843-5.991-.03a.68.68 0 0 0-.492-.014c-.587.252-1.187.493-1.731.823C13.11 35.67 11.59 38.075 11 41.093a7.13 7.13 0 0 0-.067 2.325h20.278Zm-10.116-21.68c-2.66-.004-4.707 2.045-4.766 4.672-.059 2.579 2.093 4.827 4.797 4.803 2.605-.023 4.666-2.121 4.674-4.807.009-2.58-2.09-4.661-4.705-4.667" fill="#160c4b" fill-rule="evenodd" data-name="Path 89"/><path d="M59.76 52.967c0 .857-.005 1.663.002 2.468.001.197-.102.223-.257.222-.496-.003-.992-.001-1.488-.001l-37.313-.001c-.506 0-1.012.019-1.517.003-.253-.009-.365.065-.448.319-.494 1.496-1.453 2.602-2.894 3.254-2.991 1.353-6.348-.107-7.384-3.223-.108-.325-.244-.355-.521-.354-2.548.006-5.095-.002-7.643.004-.233.001-.301-.06-.297-.292.013-.785.005-1.571.005-2.4H1.42c2.14.001 4.28.003 6.419.006.474 0 .476.001.633-.442.785-2.223 2.814-3.538 4.806-3.627 2.371-.107 4.32 1.126 5.261 3.278.054.125.126.248.147.38.059.362.265.421.607.421 13.05-.013 26.1-.014 39.152-.015h1.315m-46.22 4.052c1.541.017 2.737-1.135 2.768-2.668.031-1.486-1.19-2.732-2.702-2.757-1.466-.025-2.728 1.17-2.75 2.604-.025 1.565 1.153 2.803 2.684 2.82" fill="#fff" fill-rule="evenodd" data-name="Path 90"/><path d="M38.05 27.181c0-2.255 0-4.51.002-6.766 0-1.089.987-1.731 1.96-1.234 1.132.579 2.234 1.216 3.346 1.833 2.904 1.612 5.809 3.222 8.706 4.846.254.143.516.337.678.574.465.685.255 1.473-.493 1.917-.685.406-1.388.782-2.084 1.167-3.307 1.828-6.614 3.653-9.92 5.48-.42.233-.841.393-1.33.204-.53-.206-.863-.655-.863-1.223-.003-2.266-.001-4.531-.001-6.798m2.71-4.487v8.938l8.087-4.48-8.086-4.458" fill="#fff" fill-rule="evenodd" data-name="Path 91"/></g></g><defs><clipPath id="a"><path d="M0 0h59.763v59.737H0V0z" data-name="Rectangle 140"/></clipPath></defs></svg>