<svg xmlns="http://www.w3.org/2000/svg" width="219.354" height="193.777" viewBox="946.882 1649 73.118 64.592"><g data-name="Group 170"><path d="M946.882 1649v13.862h4.325v-9.601h9.49V1649h-13.815Z" fill="#160c4b" fill-rule="evenodd" data-name="Path 105"/><path d="M946.882 1699.73v13.862h13.805v-4.31h-9.53v-9.551h-4.275Z" fill="#160c4b" fill-rule="evenodd" data-name="Path 106"/><g data-name="Group 169"><g data-name="Group 168" transform="translate(946.882 1649)" clip-path="url(&quot;#a&quot;)"><path d="M3.667 32.33C9.143 26.223 15.01 20.8 22.36 17.221c5.235-2.55 10.746-3.81 16.588-3.343 5.341.428 10.242 2.222 14.833 4.926C59.21 22 63.827 26.167 68.082 30.766c.452.489.898.983 1.4 1.533-.353.39-.696.774-1.044 1.155-4.097 4.482-8.539 8.563-13.718 11.784-4.372 2.72-9.055 4.633-14.185 5.325-5.66.764-11.094-.136-16.331-2.345-6.381-2.69-11.7-6.89-16.559-11.727-1.346-1.34-2.628-2.746-3.978-4.16m47.084-.045c-.009-7.836-6.344-14.155-14.184-14.148-7.832.006-14.157 6.347-14.149 14.183.009 7.834 6.35 14.158 14.184 14.148A14.148 14.148 0 0 0 50.75 32.286m1.963 9.15c4.12-2.64 7.65-5.713 10.924-9.14-3.323-3.429-6.817-6.516-10.828-8.976 3.011 6.632 3.014 10.28-.096 18.116M9.53 32.304c3.325 3.433 6.822 6.52 10.973 9.148-3.157-6.15-3.163-12.135 0-18.297-4.162 2.64-7.661 5.723-10.973 9.15" fill="#00cbfa" fill-rule="evenodd" data-name="Path 107"/><path d="M68.914 4.28h-9.57V.056h13.774v13.766h-4.204V4.28Z" fill="#160c4b" fill-rule="evenodd" data-name="Path 108"/><path d="M73.115 64.558H59.34V60.33h9.531v-9.564h4.244v13.792Z" fill="#160c4b" fill-rule="evenodd" data-name="Path 109"/><path d="M36.585 25.383c3.845.002 6.967 3.136 6.93 6.957-.038 3.818-3.131 6.898-6.93 6.9-3.824.001-6.954-3.15-6.926-6.972a6.915 6.915 0 0 1 6.926-6.885m-.002 4.286a2.624 2.624 0 0 0-2.637 2.62 2.646 2.646 0 0 0 2.605 2.662c1.467.024 2.688-1.193 2.676-2.666a2.629 2.629 0 0 0-2.644-2.616" fill="#160c4b" fill-rule="evenodd" data-name="Path 110"/></g></g></g><defs><clipPath id="a"><path d="M0 0h73.118v64.592H0V0z" data-name="Rectangle 176"/></clipPath></defs></svg>