<svg xmlns="http://www.w3.org/2000/svg" width="300.965" height="193.35" viewBox="1456.839 1649 100.322 64.45"><g data-name="Group 172"><g data-name="Group 171" transform="translate(1456.84 1649)" clip-path="url(&quot;#a&quot;)"><path d="M100.281 3.151C99.447 1.031 97.953 0 95.712 0a8.27 8.27 0 0 0-.74.035C88.383.632 82.427 1.59 76.763 2.964c-2.887.7-3.885 1.659-4.163 4.25a5.298 5.298 0 0 1-.133-.039c-6.064-1.853-12.379-2.834-19.304-3-.388-.01-.772-.015-1.14-.015-5.594 0-9.858 1.146-13.418 3.606-.124.085-.528.087-.68.088-1.699.008-3.397.01-5.096.01l-5.005-.002c.075-2.484-.98-3.861-3.52-4.68A64.45 64.45 0 0 0 4.524.068C1.78.068.006 1.832.005 4.563c-.005 10.339-.005 21.136 0 33.01 0 2.74 1.765 4.517 4.494 4.526h.613c.773 0 1.547-.004 2.32-.008.77-.004 1.542-.009 2.313-.009 1.265 0 2.3.013 3.258.039.101.002.202.004.302.004 1.336 0 3.16-.23 4.33-2.027.193.234.376.456.563.674.77.9 1.535 1.807 2.3 2.713 1.746 2.07 3.552 4.21 5.405 6.254 3.21 3.542 7.618 8.012 13.273 11.16 3.68 2.05 7.18 3.047 10.698 3.047 1.21 0 2.438-.122 3.65-.363.088-.018.185-.026.289-.026.295 0 .611.07.846.189a6.452 6.452 0 0 0 2.93.704 6.31 6.31 0 0 0 5.859-3.957l.092-.23c1.08.417 2.187.635 3.233.635 2.653 0 5.576-1.468 6.073-5.539 3.26-.073 5.272-1.168 6.496-3.52 1.53-2.945 1.067-5.785-1.376-8.455l5.28-3.016c1.093 1.056 2.438 1.202 3.519 1.202l.206-.001.64-.011c1.29-.023 2.623-.046 3.932-.046 1.31 0 2.462.023 3.522.072.14.006.278.01.414.01 2.398 0 3.97-1.033 4.803-3.158a.59.59 0 0 0 .04-.214V3.366a.589.589 0 0 0-.04-.215M96.04 16.789l.001 3.998c0 .116.034.225.093.316v15.554c0 .175 0 .559-.036.714-.151.033-.524.034-.674.034h-.47c-.715 0-1.429-.002-2.143-.003-.715-.002-1.43-.004-2.145-.004-1.505 0-2.667.008-3.767.026h-.048c-.53 0-.68-.11-.839-.62-2.242-7.166-4.538-14.448-6.758-21.489L76.88 7.78c-.034-.105-.122-.387-.15-.544a5.34 5.34 0 0 1 .553-.157c5.724-1.394 11.853-2.374 18.219-2.913.065-.005.126-.008.183-.008.235 0 .287.05.287.05.004.003.083.088.081.514a2616.72 2616.72 0 0 0-.012 12.068M61.724 40.642l-2.91-2.923a8.097 8.097 0 0 1-.156-.162c-.154-.163-.33-.348-.543-.503-.431-.312-.879-.47-1.33-.47-.511 0-.994.2-1.434.593-.855.762-.917 2.045-.143 2.92.398.449.828.868 1.244 1.274.184.179.367.358.548.54l2.878 2.892c2.392 2.405 4.864 4.89 7.304 7.33.971.97 1.42 1.92 1.413 2.988-.006.846-.311 1.251-1.127 1.492a3.645 3.645 0 0 1-1.032.16c-.913 0-1.762-.408-2.595-1.245-3.278-3.294-6.618-6.636-9.848-9.868l-3.765-3.768-.142-.144c-.115-.115-.229-.23-.346-.343-.512-.491-1.092-.75-1.677-.75-.544 0-1.046.223-1.45.646-.838.876-.77 2.099.167 3.043 1.63 1.64 3.265 3.277 4.9 4.913l1.666 1.667c.595.595 1.191 1.19 1.787 1.783 1.324 1.318 2.693 2.682 4.02 4.04.608.621.854 1.437.66 2.182-.187.71-.734 1.245-1.503 1.47a2.277 2.277 0 0 1-.635.096c-.531 0-1.004-.216-1.447-.658-5.89-5.89-11.057-11.067-15.797-15.827-.583-.584-1.213-.893-1.825-.893-.534 0-1.035.233-1.45.673-.853.906-.737 2.156.297 3.186 3.949 3.935 7.957 7.942 11.834 11.818l.936.935c-.139.004-.276.006-.413.006-2.979 0-5.817-.831-8.932-2.616-3.94-2.257-7.688-5.463-11.793-10.088-2.623-2.957-5.192-6.057-7.677-9.054-.641-.774-1.282-1.548-1.925-2.32-.09-.107-.157-.416-.118-.54A5322.523 5322.523 0 0 1 25.967 14l.58-1.847a.548.548 0 0 1 .019-.05h6.97c-1.857 1.916-3.401 4.272-4.711 7.186-.995 2.215-1.014 4.54-.053 6.55.985 2.061 2.917 3.56 5.438 4.222.848.222 1.706.335 2.55.335 3.222 0 6.201-1.622 8.39-4.567.304-.408.453-.438.662-.438a1.7 1.7 0 0 1 .271.026c.379.061.758.093 1.128.093 1.399 0 2.728-.442 3.958-1.315.881.763 1.771 1.525 2.635 2.264 2.162 1.849 4.397 3.761 6.502 5.72 5.207 4.846 10.463 9.94 15.1 14.433.93.9 1.053 2.235.308 3.322a2.888 2.888 0 0 1-2.348 1.247c-.335 0-.656-.065-.953-.193-.423-.183-.869-.51-1.362-1.001-3.117-3.107-6.274-6.278-9.327-9.345m13.335-.391s-.06-.01-.227-.16a7538.685 7538.685 0 0 0-21.849-19.693c-.714-.642-1.285-1.04-1.924-1.04-.668 0-1.222.422-1.954 1.151-.594.592-1.265.893-1.992.893-.211 0-.43-.026-.65-.076a4.984 4.984 0 0 0-1.11-.133c-1.355 0-2.473.635-3.416 1.943-1.537 2.13-3.197 3.122-5.223 3.122a6.64 6.64 0 0 1-.681-.036c-1.355-.141-2.524-.712-3.207-1.565a2.942 2.942 0 0 1-.64-2.226 6.005 6.005 0 0 1 .685-2.16C36.46 13.777 41.145 10 47.187 8.727c1.194-.252 2.42-.306 3.716-.363.575-.026 1.17-.052 1.757-.097 7.124.12 14.082 1.322 20.683 3.573.392.134.544.294.674.712 2.834 9.097 5.19 16.595 7.414 23.597.146.46.139.465-.225.658-2.01 1.07-3.943 2.19-5.912 3.34-.171.1-.229.104-.235.104m-60.762-3.019c-.168.538-.311.615-.75.615h-.036a283.246 283.246 0 0 0-4.478-.037c-1.457 0-2.886.012-4.248.038H4.73c-.361 0-.45-.071-.465-.085-.023-.023-.096-.131-.093-.573.019-4.045.017-8.157.014-12.133l-.002-7.008V5.168c0-.279 0-.646.03-.81.151-.025.475-.025.662-.025h.103a59.65 59.65 0 0 1 18.077 2.85c.145.047.46.147.594.218-.02.156-.121.48-.168.63l-2.453 7.789c-2.21 7.016-4.497 14.272-6.732 21.412" fill="#00cbfa" fill-rule="evenodd" data-name="Path 111"/><path d="M11.256 7.877h-.105c-3.34.058-6.019 2.822-5.97 6.16.05 3.422 2.688 6.002 6.137 6.002l.173-.002c3.284-.084 5.895-2.86 5.82-6.19-.074-3.348-2.734-5.97-6.055-5.97m-.012 3.615v.587c1.027 0 1.884.825 1.91 1.84.012.498-.18.98-.542 1.355a1.939 1.939 0 0 1-1.36.6h-.02c-.487 0-.975-.212-1.339-.582a1.902 1.902 0 0 1-.56-1.349 1.914 1.914 0 0 1 1.901-1.864l.01-.587Z" fill="#160c4b" fill-rule="evenodd" data-name="Path 112"/><path d="M88.01 7.876c-1.576 0-3.138.663-4.286 1.818-1.16 1.167-1.793 2.685-1.783 4.274.021 3.338 2.742 6.062 6.065 6.072h.018c3.346 0 6.082-2.697 6.099-6.01a6.08 6.08 0 0 0-1.785-4.346 6.068 6.068 0 0 0-4.328-1.808m.059 3.616.008.587c1.037.004 1.89.837 1.9 1.856.005.502-.196.984-.565 1.357a1.915 1.915 0 0 1-1.365.583c-1.001 0-1.857-.86-1.869-1.879a1.888 1.888 0 0 1 .541-1.361 1.88 1.88 0 0 1 1.35-.556v-.587Z" fill="#160c4b" fill-rule="evenodd" data-name="Path 113"/></g></g><defs><clipPath id="a"><path d="M0 0h100.322v64.45H0V0z" data-name="Rectangle 177"/></clipPath></defs></svg>